<svg width="153" height="153" viewBox="0 0 153 153" fill="none" xmlns="http://www.w3.org/2000/svg">
<path d="M103.126 97.0809C106.72 96.2226 109.118 92.3837 108.904 87.8228L108.684 83.1224C108.57 80.7211 109.186 78.4344 110.413 76.7024L112.818 73.3065C115.169 69.985 115.135 64.888 112.74 61.0645L110.289 57.1605C109.041 55.1651 108.393 52.7514 108.477 50.3656L108.638 45.7055C108.799 41.1415 106.302 36.7603 102.642 35.177L98.9025 33.5596C96.9939 32.7354 95.3331 31.1087 94.2425 28.9894L92.1045 24.8436C90.5646 21.8598 87.9929 19.9915 85.3376 19.7126C84.3801 19.6135 83.4103 19.7188 82.4777 20.0534L78.8773 21.3393C77.9571 21.6677 76.9873 21.7793 76.0175 21.6801C75.0476 21.5779 74.0747 21.2618 73.1483 20.7382L69.5262 18.6932C68.5874 18.1634 67.6145 17.8535 66.6571 17.7513C64.0017 17.4724 61.4486 18.8017 59.9459 21.4663L57.8544 25.169C56.7885 27.059 55.1464 28.3387 53.247 28.7632L49.5227 29.5967C45.8758 30.4116 43.4343 34.2753 43.6512 38.8765L43.8712 43.5769C43.9858 45.9813 43.3692 48.2648 42.1422 49.9969L39.7378 53.3928C37.3861 56.7174 37.4171 61.8144 39.8153 65.6348L42.2631 69.5388C43.5117 71.5342 44.1593 73.951 44.0756 76.3337L43.9145 80.9938C43.7534 85.5578 46.2508 89.939 49.91 91.5223L53.5197 93.0839L45.5195 123.769L59.5554 122.331L71.0569 134.477L78.6387 106.023L90.4779 135.286L100.768 123.97L115.005 126.486L103.126 97.084V97.0809Z" fill="url(#paint0_linear_11402_44148)"/>
<path d="M74.9393 29.2019C90.9954 30.8905 104.111 48.0373 104.235 67.5049C104.359 86.9725 91.4416 101.383 75.3855 99.6947C59.3294 98.006 46.2106 80.8592 46.0898 61.3917C45.9658 41.9241 58.8832 27.5132 74.9424 29.2019H74.9393ZM75.3452 93.5753C88.591 94.9665 99.2868 83.0343 99.1846 66.9751C99.0823 50.9158 88.2223 36.7156 74.9765 35.3244C61.7307 33.9332 51.0349 45.8653 51.1371 61.9246C51.2394 77.9839 62.0994 92.1841 75.3452 93.5753Z" fill="url(#paint1_linear_11402_44148)"/>
<path d="M81.6502 93.2165C94.4248 90.3329 101.874 75.1172 98.2878 59.2311C94.7019 43.345 81.4391 32.8044 68.6646 35.688C55.89 38.5716 48.4411 53.7874 52.027 69.6734C55.6129 85.5595 68.8757 96.1001 81.6502 93.2165Z" fill="url(#paint2_linear_11402_44148)"/>
<path d="M55.873 57.5965L59.1828 56.8489L71.3519 55.9844L68.0421 56.7319L55.873 57.5965Z" fill="#A8C9F2"/>
<path d="M73.6203 77.6312L76.9301 76.8865L66.0764 82.6843L62.7666 83.4318L73.6203 77.6312Z" fill="#A8C9F2"/>
<path d="M73.4062 43.9204L76.716 43.1729L82.2484 57.1309L78.9387 57.8756L73.4062 43.9204Z" fill="#A8C9F2"/>
<path d="M82.3848 70.7881L85.6945 70.0405L87.8687 84.9716L84.5589 85.7191L82.3848 70.7881Z" fill="#A8C9F2"/>
<path d="M73.4062 43.9202L78.9386 57.8754L91.1362 61.3022L82.3853 70.7921L84.5595 85.7231L73.6202 77.6313L62.7665 83.432L64.7552 68.9403L55.873 57.5958L68.0421 56.7313L73.4062 43.9202Z" fill="url(#paint3_linear_11402_44148)"/>
<path d="M78.9385 57.8756L82.2482 57.1309L94.443 60.5548L91.1361 61.3023L78.9385 57.8756Z" fill="#A8C9F2"/>
<path d="M91.1356 61.301L94.4426 60.5535L85.6945 70.0434L82.3848 70.7909L91.1356 61.301Z" fill="#A8C9F2"/>
<defs>
<linearGradient id="paint0_linear_11402_44148" x1="111.232" y1="135.286" x2="27.4183" y2="43.7852" gradientUnits="userSpaceOnUse">
<stop stop-color="#1D73E9"/>
<stop offset="1" stop-color="#4EC3FF"/>
</linearGradient>
<linearGradient id="paint1_linear_11402_44148" x1="66.5845" y1="40.1117" x2="95.4522" y2="99.2422" gradientUnits="userSpaceOnUse">
<stop stop-color="#F6FCFF"/>
<stop offset="1" stop-color="#C0E2FF"/>
</linearGradient>
<linearGradient id="paint2_linear_11402_44148" x1="68.1312" y1="82.3551" x2="97.6481" y2="37.5854" gradientUnits="userSpaceOnUse">
<stop stop-color="#1BB1FF"/>
<stop offset="1" stop-color="#63F0EB"/>
</linearGradient>
<linearGradient id="paint3_linear_11402_44148" x1="68.3026" y1="50.4447" x2="85.0801" y2="85.7232" gradientUnits="userSpaceOnUse">
<stop stop-color="#F6FCFF"/>
<stop offset="1" stop-color="#C0E2FF"/>
</linearGradient>
</defs>
</svg>
