<svg width="560" height="540" fill="none" xmlns="http://www.w3.org/2000/svg"><g clip-path="url(#a)"><path d="m81.039 132.703 244.499-159h272.5v348l-406 206.5-167.5-86 56.5-309.5Z" fill="url(#b)" fill-opacity=".32"/><path transform="rotate(13 121.58 128.771)" fill="url(#c)" d="M121.58 128.771h156.837v343.265H121.58z"/><mask id="f" maskUnits="userSpaceOnUse" x="-33.489" y="62.711" width="387.918" height="505.577" fill="#000"><path fill="#fff" d="M-33.489 62.711h387.918v505.577H-33.489z"/><path d="m310.171 311.658-16.462 71.303c-7.525 32.596-17.258 59.675-29.198 81.237-11.94 21.563-25.833 38.281-41.68 50.154-15.801 11.679-33.159 19.014-52.074 22.004-18.869 2.796-38.899 1.748-60.09-3.144-16.913-3.904-32.167-9.674-45.762-17.309-13.55-7.828-25.104-17.649-34.663-29.461-9.32-11.961-16.502-26.085-21.547-42.372-4.85-16.243-7.204-34.873-7.062-55.889.337-20.972 3.506-44.457 9.509-70.456l16.461-71.303c7.526-32.595 17.236-59.577 29.131-80.946 12.09-21.324 26.036-37.825 41.837-49.504 15.802-11.679 33.115-18.82 51.94-21.422 18.87-2.797 38.9-1.749 60.09 3.143 17.107 3.95 32.361 9.72 45.762 17.309 13.595 7.635 25.074 17.336 34.439 29.103 9.604 11.618 16.831 25.548 21.681 41.791 4.895 16.048 7.174 34.558 6.838 55.53-.098 20.822-3.148 44.233-9.15 70.232Zm-95.865 64.007 21.366-92.548c3.763-16.298 6.061-30.686 6.894-43.164 1.072-12.628.844-23.614-.684-32.959-1.528-9.344-4.312-17.242-8.352-23.692-3.994-6.645-9.103-12.014-15.325-16.107-6.221-4.093-13.415-7.082-21.58-8.967-10.109-2.334-19.619-2.384-28.53-.149-8.867 2.04-17.007 6.7-24.421 13.981-7.415 7.28-14.215 17.665-20.401 31.155-5.947 13.342-11.249 30.101-15.908 50.28l-21.366 92.548c-3.763 16.298-6.18 30.76-7.253 43.387-.878 12.673-.575 23.778.909 33.317 1.678 9.584 4.394 17.772 8.15 24.566 3.995 6.644 9.08 12.11 15.258 16.397 6.222 4.093 13.415 7.083 21.58 8.968 10.303 2.378 19.814 2.428 28.53.149 8.912-2.234 17.097-7.089 24.556-14.563 7.504-7.668 14.251-18.27 20.243-31.805 6.231-13.685 11.675-30.616 16.334-50.794Z"/></mask><path d="m310.171 311.658-16.462 71.303c-7.525 32.596-17.258 59.675-29.198 81.237-11.94 21.563-25.833 38.281-41.68 50.154-15.801 11.679-33.159 19.014-52.074 22.004-18.869 2.796-38.899 1.748-60.09-3.144-16.913-3.904-32.167-9.674-45.762-17.309-13.55-7.828-25.104-17.649-34.663-29.461-9.32-11.961-16.502-26.085-21.547-42.372-4.85-16.243-7.204-34.873-7.062-55.889.337-20.972 3.506-44.457 9.509-70.456l16.461-71.303c7.526-32.595 17.236-59.577 29.131-80.946 12.09-21.324 26.036-37.825 41.837-49.504 15.802-11.679 33.115-18.82 51.94-21.422 18.87-2.797 38.9-1.749 60.09 3.143 17.107 3.95 32.361 9.72 45.762 17.309 13.595 7.635 25.074 17.336 34.439 29.103 9.604 11.618 16.831 25.548 21.681 41.791 4.895 16.048 7.174 34.558 6.838 55.53-.098 20.822-3.148 44.233-9.15 70.232Zm-95.865 64.007 21.366-92.548c3.763-16.298 6.061-30.686 6.894-43.164 1.072-12.628.844-23.614-.684-32.959-1.528-9.344-4.312-17.242-8.352-23.692-3.994-6.645-9.103-12.014-15.325-16.107-6.221-4.093-13.415-7.082-21.58-8.967-10.109-2.334-19.619-2.384-28.53-.149-8.867 2.04-17.007 6.7-24.421 13.981-7.415 7.28-14.215 17.665-20.401 31.155-5.947 13.342-11.249 30.101-15.908 50.28l-21.366 92.548c-3.763 16.298-6.18 30.76-7.253 43.387-.878 12.673-.575 23.778.909 33.317 1.678 9.584 4.394 17.772 8.15 24.566 3.995 6.644 9.08 12.11 15.258 16.397 6.222 4.093 13.415 7.083 21.58 8.968 10.303 2.378 19.814 2.428 28.53.149 8.912-2.234 17.097-7.089 24.556-14.563 7.504-7.668 14.251-18.27 20.243-31.805 6.231-13.685 11.675-30.616 16.334-50.794Z" fill="url(#d)"/><path d="m310.171 311.658-16.462 71.303c-7.525 32.596-17.258 59.675-29.198 81.237-11.94 21.563-25.833 38.281-41.68 50.154-15.801 11.679-33.159 19.014-52.074 22.004-18.869 2.796-38.899 1.748-60.09-3.144-16.913-3.904-32.167-9.674-45.762-17.309-13.55-7.828-25.104-17.649-34.663-29.461-9.32-11.961-16.502-26.085-21.547-42.372-4.85-16.243-7.204-34.873-7.062-55.889.337-20.972 3.506-44.457 9.509-70.456l16.461-71.303c7.526-32.595 17.236-59.577 29.131-80.946 12.09-21.324 26.036-37.825 41.837-49.504 15.802-11.679 33.115-18.82 51.94-21.422 18.87-2.797 38.9-1.749 60.09 3.143 17.107 3.95 32.361 9.72 45.762 17.309 13.595 7.635 25.074 17.336 34.439 29.103 9.604 11.618 16.831 25.548 21.681 41.791 4.895 16.048 7.174 34.558 6.838 55.53-.098 20.822-3.148 44.233-9.15 70.232Zm-95.865 64.007 21.366-92.548c3.763-16.298 6.061-30.686 6.894-43.164 1.072-12.628.844-23.614-.684-32.959-1.528-9.344-4.312-17.242-8.352-23.692-3.994-6.645-9.103-12.014-15.325-16.107-6.221-4.093-13.415-7.082-21.58-8.967-10.109-2.334-19.619-2.384-28.53-.149-8.867 2.04-17.007 6.7-24.421 13.981-7.415 7.28-14.215 17.665-20.401 31.155-5.947 13.342-11.249 30.101-15.908 50.28l-21.366 92.548c-3.763 16.298-6.18 30.76-7.253 43.387-.878 12.673-.575 23.778.909 33.317 1.678 9.584 4.394 17.772 8.15 24.566 3.995 6.644 9.08 12.11 15.258 16.397 6.222 4.093 13.415 7.083 21.58 8.968 10.303 2.378 19.814 2.428 28.53.149 8.912-2.234 17.097-7.089 24.556-14.563 7.504-7.668 14.251-18.27 20.243-31.805 6.231-13.685 11.675-30.616 16.334-50.794Z" stroke="url(#e)" stroke-width="3" mask="url(#f)"/></g><defs><linearGradient id="c" x1="238.971" y1="161.943" x2="108.106" y2="436.528" gradientUnits="userSpaceOnUse"><stop stop-color="#5979C2"/><stop offset="1" stop-color="#85A1D6"/></linearGradient><linearGradient id="d" x1="559.374" y1="494.631" x2="74.364" y2="91.345" gradientUnits="userSpaceOnUse"><stop stop-color="#3A5EB4"/><stop offset="1" stop-color="#DCEFFF"/></linearGradient><linearGradient id="e" x1="341" y1="166" x2="-18" y2="450" gradientUnits="userSpaceOnUse"><stop stop-color="#11AFFF"/><stop offset="1" stop-color="#fff"/></linearGradient><radialGradient id="b" cx="0" cy="0" r="1" gradientUnits="userSpaceOnUse" gradientTransform="rotate(-27.906 711.666 -146.877) scale(324.766 289.895)"><stop stop-color="#3A5EB4"/><stop offset="1" stop-color="#fff"/></radialGradient><clipPath id="a"><path fill="#fff" d="M0 0h560v540H0z"/></clipPath></defs></svg>