<svg width="153" height="153" viewBox="0 0 153 153" fill="none" xmlns="http://www.w3.org/2000/svg">
<path d="M131.674 121.817C131.235 123.53 130.163 124.981 127.805 126.747C121.677 131.337 110.686 135.418 96.5742 137.303C81.9885 139.251 66.2019 139.145 52.1219 137.006C42.9957 135.62 35.1836 133.447 29.5305 130.721C24.6244 128.356 21.4713 125.616 20.6536 123.004C19.8658 120.489 21.2572 117.874 24.7882 115.23C30.9162 110.64 42.5244 106.927 56.6372 105.043C63.5121 104.124 70.6539 103.662 77.7577 103.654C148.743 103.576 98.7919 90.4316 53.1296 96.5293C35.7218 98.8545 21.7149 103.444 13.6917 109.453C10.6408 111.738 8.48369 114.199 7.28261 116.77C6.01657 119.477 5.81043 122.242 6.66964 124.987C8.15587 129.731 12.8586 134.127 20.2731 137.701C27.3286 141.101 36.8894 143.785 47.9205 145.461C56.6722 146.791 65.9801 147.453 75.3412 147.442C83.6744 147.433 92.0486 146.891 100.106 145.815C117.514 143.49 131.521 138.901 139.544 132.891C144.082 129.494 146.07 126.149 146.768 123.276C148.124 117.685 132.742 117.638 131.674 121.817Z" fill="url(#paint0_linear_11402_44073)"/>
<path d="M118.353 66.714C118.336 63.9891 116.261 61.5277 113.719 61.2155L52.1952 53.6612C52.1683 53.6574 52.1415 53.6548 52.1133 53.6523C52.0647 53.6471 52.0161 53.6459 51.9675 53.642C51.9138 53.6382 51.86 53.6331 51.8063 53.6305C51.7436 53.6279 51.6822 53.6292 51.6208 53.6292C51.5683 53.6292 51.5159 53.6292 51.4647 53.6292C51.4033 53.6318 51.3419 53.6369 51.2805 53.642C51.2306 53.6459 51.1794 53.6484 51.1295 53.6548C51.0681 53.6625 51.008 53.6727 50.9479 53.6817C50.9005 53.6894 50.8519 53.6958 50.8046 53.7047C50.7432 53.7162 50.6831 53.7316 50.6229 53.7469C50.5782 53.7572 50.5321 53.7674 50.4886 53.7789C50.4259 53.7968 50.3658 53.8173 50.3044 53.8378C50.2635 53.8505 50.2225 53.8621 50.1829 53.8774C50.1163 53.9017 50.0511 53.9299 49.9859 53.958C49.9539 53.9721 49.9193 53.9836 49.8873 53.9977C49.7914 54.0412 49.698 54.0885 49.6072 54.1384C49.6072 54.1384 49.6059 54.1384 49.6046 54.1397L36.9639 61.1132C37.056 61.062 37.1506 61.0147 37.2466 60.9712C37.2786 60.9571 37.3118 60.9443 37.3438 60.9315C37.4091 60.9034 37.4743 60.8752 37.5408 60.8509C37.5805 60.8368 37.6214 60.8253 37.6624 60.8113C37.7238 60.7908 37.7839 60.7703 37.8466 60.7524C37.8901 60.7396 37.9361 60.7307 37.9809 60.7204C38.041 60.7064 38.1012 60.6897 38.1626 60.6782C38.2099 60.6693 38.2585 60.6629 38.3059 60.6552C38.366 60.6449 38.4261 60.6347 38.4875 60.6283C38.5374 60.6232 38.5873 60.6194 38.6385 60.6155C38.6999 60.6104 38.76 60.6053 38.8227 60.6027C38.8739 60.6002 38.9263 60.6027 38.9788 60.6027C39.0402 60.6027 39.1016 60.6027 39.1643 60.604C39.218 60.6066 39.2717 60.6104 39.3255 60.6155C39.4009 60.6206 39.4764 60.6258 39.5532 60.6347L101.077 68.189C103.619 68.5012 105.694 70.9638 105.711 73.6875L106.024 123.273C106.036 125.038 105.181 126.479 103.889 127.192L116.53 120.218C117.822 119.506 118.677 118.064 118.665 116.3L118.352 66.714H118.353Z" fill="#C5DEFB"/>
<path d="M118.353 66.714C118.336 63.9891 116.261 61.5277 113.719 61.2155L52.1952 53.6612C52.1683 53.6574 52.1415 53.6548 52.1133 53.6523C52.0647 53.6471 52.0161 53.6459 51.9675 53.642C51.9138 53.6382 51.86 53.6331 51.8063 53.6305C51.7436 53.6279 51.6822 53.6292 51.6208 53.6292C51.5683 53.6292 51.5159 53.6292 51.4647 53.6292C51.4033 53.6318 51.3419 53.6369 51.2805 53.642C51.2306 53.6459 51.1794 53.6484 51.1295 53.6548C51.0681 53.6625 51.008 53.6727 50.9479 53.6817C50.9005 53.6894 50.8519 53.6958 50.8046 53.7047C50.7432 53.7162 50.6831 53.7316 50.6229 53.7469C50.5782 53.7572 50.5321 53.7674 50.4886 53.7789C50.4259 53.7968 50.3658 53.8173 50.3044 53.8378C50.2635 53.8505 50.2225 53.8621 50.1829 53.8774C50.1163 53.9017 50.0511 53.9299 49.9859 53.958C49.9539 53.9721 49.9193 53.9836 49.8873 53.9977C49.7914 54.0412 49.698 54.0885 49.6072 54.1384C49.6072 54.1384 49.6059 54.1384 49.6046 54.1397L36.9639 61.1132C37.056 61.062 37.1506 61.0147 37.2466 60.9712C37.2786 60.9571 37.3118 60.9443 37.3438 60.9315C37.4091 60.9034 37.4743 60.8752 37.5408 60.8509C37.5805 60.8368 37.6214 60.8253 37.6624 60.8113C37.7238 60.7908 37.7839 60.7703 37.8466 60.7524C37.8901 60.7396 37.9361 60.7307 37.9809 60.7204C38.041 60.7064 38.1012 60.6897 38.1626 60.6782C38.2099 60.6693 38.2585 60.6629 38.3059 60.6552C38.366 60.6449 38.4261 60.6347 38.4875 60.6283C38.5374 60.6232 38.5873 60.6194 38.6385 60.6155C38.6999 60.6104 38.76 60.6053 38.8227 60.6027C38.8739 60.6002 38.9263 60.6027 38.9788 60.6027C39.0402 60.6027 39.1016 60.6027 39.1643 60.604C39.218 60.6066 39.2717 60.6104 39.3255 60.6155C39.4009 60.6206 39.4764 60.6258 39.5532 60.6347L101.077 68.189C103.619 68.5012 105.694 70.9638 105.711 73.6875L106.024 123.273C106.036 125.038 105.181 126.479 103.889 127.192L116.53 120.218C117.822 119.506 118.677 118.064 118.665 116.3L118.352 66.714H118.353Z" fill="url(#paint1_radial_11402_44073)" fill-opacity="0.3"/>
<path d="M118.353 66.714C118.336 63.9891 116.261 61.5277 113.719 61.2155L52.1952 53.6612C52.1683 53.6574 52.1415 53.6548 52.1133 53.6523C52.0647 53.6471 52.0161 53.6459 51.9675 53.642C51.9138 53.6382 51.86 53.6331 51.8063 53.6305C51.7436 53.6279 51.6822 53.6292 51.6208 53.6292C51.5683 53.6292 51.5159 53.6292 51.4647 53.6292C51.4033 53.6318 51.3419 53.6369 51.2805 53.642C51.2306 53.6459 51.1794 53.6484 51.1295 53.6548C51.0681 53.6625 51.008 53.6727 50.9479 53.6817C50.9005 53.6894 50.8519 53.6958 50.8046 53.7047C50.7432 53.7162 50.6831 53.7316 50.6229 53.7469C50.5782 53.7572 50.5321 53.7674 50.4886 53.7789C50.4259 53.7968 50.3658 53.8173 50.3044 53.8378C50.2635 53.8505 50.2225 53.8621 50.1829 53.8774C50.1163 53.9017 50.0511 53.9299 49.9859 53.958C49.9539 53.9721 49.9193 53.9836 49.8873 53.9977C49.7914 54.0412 49.698 54.0885 49.6072 54.1384C49.6072 54.1384 49.6059 54.1384 49.6046 54.1397L36.9639 61.1132C37.056 61.062 37.1506 61.0147 37.2466 60.9712C37.2786 60.9571 37.3118 60.9443 37.3438 60.9315C37.4091 60.9034 37.4743 60.8752 37.5408 60.8509C37.5805 60.8368 37.6214 60.8253 37.6624 60.8113C37.7238 60.7908 37.7839 60.7703 37.8466 60.7524C37.8901 60.7396 37.9361 60.7307 37.9809 60.7204C38.041 60.7064 38.1012 60.6897 38.1626 60.6782C38.2099 60.6693 38.2585 60.6629 38.3059 60.6552C38.366 60.6449 38.4261 60.6347 38.4875 60.6283C38.5374 60.6232 38.5873 60.6194 38.6385 60.6155C38.6999 60.6104 38.76 60.6053 38.8227 60.6027C38.8739 60.6002 38.9263 60.6027 38.9788 60.6027C39.0402 60.6027 39.1016 60.6027 39.1643 60.604C39.218 60.6066 39.2717 60.6104 39.3255 60.6155C39.4009 60.6206 39.4764 60.6258 39.5532 60.6347L101.077 68.189C103.619 68.5012 105.694 70.9638 105.711 73.6875L106.024 123.273C106.036 125.038 105.181 126.479 103.889 127.192L116.53 120.218C117.822 119.506 118.677 118.064 118.665 116.3L118.352 66.714H118.353Z" fill="url(#paint2_linear_11402_44073)" fill-opacity="0.5"/>
<path d="M98.1944 72.3782C99.3983 72.524 100.388 73.6997 100.395 74.9893L100.708 124.575C100.719 125.867 99.7411 126.801 98.5373 126.652L36.7229 119.061C35.5178 118.916 34.5276 117.74 34.5212 116.449L34.2091 67.1752C34.1988 65.7117 35.3041 64.655 36.6691 64.8239L98.1932 72.3782H98.1944Z" fill="url(#paint3_radial_11402_44073)"/>
<path d="M98.1944 72.3782C99.3983 72.524 100.388 73.6997 100.395 74.9893L100.708 124.575C100.719 125.867 99.7411 126.801 98.5373 126.652L36.7229 119.061C35.5178 118.916 34.5276 117.74 34.5212 116.449L34.2091 67.1752C34.1988 65.7117 35.3041 64.655 36.6691 64.8239L98.1932 72.3782H98.1944Z" fill="url(#paint4_radial_11402_44073)"/>
<path d="M105.757 73.6853C105.757 73.5881 105.752 73.4909 105.747 73.3949C105.746 73.3642 105.742 73.3348 105.741 73.3041C105.735 73.2363 105.729 73.1698 105.721 73.102C105.718 73.0687 105.714 73.0354 105.709 73.0022C105.7 72.9357 105.689 72.8691 105.678 72.8026C105.673 72.7732 105.669 72.7438 105.662 72.7143C105.645 72.6197 105.625 72.5263 105.604 72.4342V72.4303C105.582 72.3395 105.558 72.2487 105.531 72.1591C105.522 72.131 105.513 72.1016 105.504 72.0734C105.485 72.0094 105.464 71.9468 105.441 71.8841C105.43 71.8534 105.419 71.8214 105.408 71.7907C105.385 71.728 105.361 71.6666 105.335 71.6039C105.323 71.577 105.313 71.5502 105.302 71.5233C105.265 71.4363 105.226 71.3506 105.185 71.2649C105.184 71.2623 105.183 71.2598 105.181 71.2572C105.142 71.1753 105.1 71.0947 105.056 71.0141C105.042 70.9886 105.027 70.963 105.013 70.9361C104.981 70.8785 104.947 70.8222 104.913 70.766C104.896 70.7378 104.878 70.7097 104.862 70.6828C104.826 70.6265 104.79 70.5715 104.753 70.5178C104.736 70.4935 104.721 70.4704 104.704 70.4461C104.651 70.3694 104.596 70.2939 104.539 70.221C104.537 70.2171 104.533 70.2133 104.53 70.2095C104.477 70.1391 104.42 70.0713 104.363 70.0048C104.344 69.9817 104.324 69.96 104.304 69.9382C104.262 69.8896 104.218 69.8423 104.173 69.795C104.152 69.7719 104.129 69.7476 104.106 69.7246C104.06 69.6773 104.013 69.6325 103.966 69.5864C103.946 69.5672 103.925 69.5468 103.905 69.5276C103.837 69.4649 103.769 69.4035 103.699 69.3446C103.699 69.3446 103.699 69.3446 103.697 69.3434C103.695 69.3408 103.692 69.3395 103.69 69.3382C103.612 69.273 103.531 69.2103 103.449 69.1489C103.428 69.1323 103.406 69.1169 103.384 69.1003C103.302 69.0414 103.219 68.9826 103.133 68.9289C103.129 68.9263 103.127 68.9237 103.123 68.9212C103.035 68.8649 102.945 68.8124 102.854 68.7613C102.831 68.7485 102.807 68.7357 102.784 68.7229C102.7 68.6781 102.615 68.6346 102.529 68.595C102.521 68.5911 102.512 68.586 102.501 68.5809C102.407 68.5374 102.312 68.499 102.215 68.4619C102.19 68.453 102.165 68.444 102.141 68.4351C102.055 68.4044 101.968 68.3749 101.881 68.3481C101.867 68.3442 101.853 68.3391 101.839 68.3353C101.74 68.3071 101.639 68.2815 101.538 68.2598C101.512 68.2547 101.487 68.2496 101.463 68.2444C101.376 68.2265 101.287 68.2112 101.199 68.1997C101.186 68.1984 101.172 68.1945 101.159 68.1933C101.147 68.192 101.135 68.1907 101.122 68.1881L39.5533 60.6378C39.4625 60.6262 39.3717 60.6186 39.2808 60.6134C39.2565 60.6122 39.231 60.6109 39.2066 60.6096C39.1337 60.6058 39.0608 60.6045 38.9879 60.6045C38.97 60.6045 38.9521 60.6045 38.9342 60.6045C38.8472 60.6045 38.7602 60.6096 38.6745 60.616C38.654 60.6173 38.6335 60.6198 38.6131 60.6211C38.544 60.6275 38.4762 60.6339 38.4084 60.6442C38.3853 60.6467 38.3636 60.6505 38.3406 60.6531C38.2561 60.6659 38.173 60.68 38.0911 60.6979C38.0821 60.7004 38.0719 60.703 38.063 60.7043C37.99 60.7209 37.9171 60.7388 37.8455 60.7593C37.8224 60.7657 37.8007 60.7721 37.7777 60.7785C37.7086 60.7989 37.6408 60.8207 37.5743 60.8437C37.5627 60.8476 37.55 60.8514 37.5384 60.8565C37.4617 60.8847 37.3849 60.9154 37.3107 60.9473C37.2915 60.9563 37.2723 60.9653 37.2532 60.9729C37.1943 60.9998 37.1355 61.0279 37.0766 61.0574C37.0587 61.0663 37.0395 61.0753 37.0216 61.0855C36.95 61.1239 36.8796 61.1636 36.8092 61.2058C36.7964 61.2134 36.7849 61.2211 36.7721 61.2288C36.7146 61.2646 36.657 61.303 36.6007 61.3414C36.5815 61.3542 36.5636 61.367 36.5444 61.381C36.483 61.4258 36.4216 61.4719 36.3615 61.5205C36.3576 61.5243 36.3525 61.5269 36.3487 61.5307C36.286 61.5819 36.2246 61.6369 36.1632 61.6919C36.1466 61.7073 36.1312 61.7226 36.1146 61.738C36.0672 61.784 36.0199 61.8301 35.9739 61.8774C35.9611 61.8902 35.9483 61.903 35.9355 61.9171C35.8792 61.9772 35.8255 62.0386 35.773 62.1013C35.7615 62.1154 35.75 62.1294 35.7385 62.1435C35.6963 62.196 35.6553 62.2484 35.6157 62.3021C35.608 62.3124 35.599 62.3226 35.5914 62.3341C35.585 62.3431 35.5786 62.352 35.5722 62.3623C35.544 62.4019 35.5172 62.4416 35.4903 62.4812C35.4762 62.5017 35.4621 62.5222 35.4493 62.5439C35.4161 62.5964 35.3828 62.6501 35.3508 62.7051C35.3457 62.7141 35.3393 62.723 35.3342 62.732C35.2971 62.7959 35.2626 62.8612 35.228 62.9277C35.2178 62.9469 35.2088 62.9674 35.1986 62.9878C35.1756 63.0352 35.1526 63.0825 35.1308 63.1311C35.1193 63.1567 35.1091 63.1823 35.0975 63.2079C35.0784 63.2527 35.0604 63.2962 35.0425 63.3409C35.0323 63.3678 35.0208 63.3959 35.0105 63.4241C34.9939 63.4689 34.9773 63.5149 34.9619 63.561C34.953 63.5878 34.9427 63.616 34.9338 63.6441C34.9184 63.694 34.9031 63.7452 34.889 63.7951C34.8826 63.8194 34.8749 63.8424 34.8685 63.8667C34.8481 63.9422 34.8289 64.0177 34.8123 64.0957C34.6306 64.9234 34.4502 65.7511 34.2686 66.5801C34.2852 66.5021 34.3069 66.4266 34.33 66.3524C34.3376 66.3281 34.3466 66.3051 34.3555 66.2821C34.3735 66.2322 34.3914 66.1836 34.4118 66.1362C34.4234 66.1094 34.4361 66.0838 34.4477 66.0582C34.4681 66.0147 34.4899 65.9725 34.5116 65.9315C34.5257 65.9059 34.5398 65.8804 34.5551 65.8561C34.5794 65.8151 34.605 65.7767 34.6319 65.7371C34.6498 65.7115 34.6664 65.6846 34.6856 65.6603C34.6958 65.6475 34.7061 65.6335 34.7163 65.6207C34.747 65.5823 34.779 65.5439 34.811 65.5081C34.8187 65.5004 34.8251 65.4914 34.8327 65.4825C34.8724 65.439 34.9146 65.3981 34.9581 65.3597C34.9683 65.3494 34.9798 65.3405 34.9901 65.3315C35.0259 65.3008 35.0617 65.2714 35.0988 65.2433C35.1103 65.2343 35.1231 65.2241 35.1346 65.2151C35.182 65.1806 35.2293 65.1486 35.2792 65.1179C35.2869 65.1141 35.2946 65.1102 35.3009 65.1051C35.3444 65.0795 35.3892 65.0552 35.4353 65.0322C35.4506 65.0245 35.4647 65.0181 35.4801 65.0104C35.5274 64.9887 35.576 64.9682 35.6246 64.949C35.631 64.9465 35.6374 64.9439 35.6438 64.9413C35.6988 64.9209 35.7564 64.9042 35.8139 64.8876C35.8293 64.8838 35.8447 64.8799 35.86 64.8761C35.9061 64.8646 35.9534 64.8544 36.002 64.8467C36.0161 64.8441 36.0301 64.8416 36.0442 64.839C36.1043 64.83 36.1645 64.8224 36.2259 64.8185C36.2387 64.8185 36.2515 64.8185 36.263 64.8173C36.3142 64.8147 36.3653 64.8134 36.4178 64.8147C36.4357 64.8147 36.4523 64.8147 36.4702 64.816C36.5342 64.8185 36.5982 64.8224 36.6634 64.8313L98.1874 72.3856C98.2578 72.3946 98.3256 72.4074 98.3947 72.4215C98.4126 72.4253 98.4292 72.4304 98.4471 72.4343C98.497 72.447 98.5469 72.4611 98.5955 72.4765C98.6147 72.4829 98.6339 72.4893 98.6531 72.4957C98.7107 72.5161 98.7682 72.5392 98.8245 72.5635C98.8309 72.566 98.836 72.5686 98.8424 72.5711C98.9038 72.5993 98.964 72.6313 99.0228 72.6645C99.0395 72.6735 99.0561 72.6837 99.0727 72.6939C99.1162 72.7208 99.1597 72.7477 99.2019 72.7771C99.2185 72.7886 99.2339 72.7989 99.2505 72.8104C99.3055 72.85 99.3605 72.891 99.413 72.9357C99.413 72.9357 99.4156 72.9383 99.4168 72.9396C99.468 72.9831 99.5166 73.0291 99.5652 73.0765C99.5755 73.0867 99.5857 73.0969 99.5959 73.1072C99.6433 73.1545 99.688 73.2044 99.7315 73.2556C99.7392 73.2645 99.7456 73.2735 99.7533 73.2824C99.793 73.3298 99.8313 73.3797 99.8672 73.4296C99.8736 73.4385 99.88 73.4475 99.8864 73.4564C99.9247 73.5114 99.9618 73.569 99.9977 73.6278C100.005 73.6406 100.013 73.6534 100.021 73.6662C100.055 73.7264 100.09 73.7878 100.119 73.8504V73.853C100.15 73.9157 100.177 73.9797 100.202 74.0436C100.207 74.0577 100.214 74.0718 100.219 74.0858C100.243 74.1498 100.265 74.215 100.284 74.2816C100.288 74.2931 100.291 74.3046 100.293 74.3148C100.31 74.3762 100.325 74.4376 100.338 74.4991C100.34 74.5106 100.343 74.5221 100.346 74.5323C100.358 74.6001 100.369 74.6692 100.375 74.7383C100.376 74.7536 100.378 74.769 100.379 74.7843C100.385 74.856 100.389 74.9276 100.39 74.9993L100.704 124.585C100.714 125.877 99.6803 126.696 98.4765 126.546L36.2888 118.964L39.6339 120.063L101.448 127.653C103.99 127.965 106.082 126.005 106.064 123.279L105.751 73.693L105.757 73.6853Z" fill="#ECF6FF"/>
<path d="M105.757 73.6853C105.757 73.5881 105.752 73.4909 105.747 73.3949C105.746 73.3642 105.742 73.3348 105.741 73.3041C105.735 73.2363 105.729 73.1698 105.721 73.102C105.718 73.0687 105.714 73.0354 105.709 73.0022C105.7 72.9357 105.689 72.8691 105.678 72.8026C105.673 72.7732 105.669 72.7438 105.662 72.7143C105.645 72.6197 105.625 72.5263 105.604 72.4342V72.4303C105.582 72.3395 105.558 72.2487 105.531 72.1591C105.522 72.131 105.513 72.1016 105.504 72.0734C105.485 72.0094 105.464 71.9468 105.441 71.8841C105.43 71.8534 105.419 71.8214 105.408 71.7907C105.385 71.728 105.361 71.6666 105.335 71.6039C105.323 71.577 105.313 71.5502 105.302 71.5233C105.265 71.4363 105.226 71.3506 105.185 71.2649C105.184 71.2623 105.183 71.2598 105.181 71.2572C105.142 71.1753 105.1 71.0947 105.056 71.0141C105.042 70.9886 105.027 70.963 105.013 70.9361C104.981 70.8785 104.947 70.8222 104.913 70.766C104.896 70.7378 104.878 70.7097 104.862 70.6828C104.826 70.6265 104.79 70.5715 104.753 70.5178C104.736 70.4935 104.721 70.4704 104.704 70.4461C104.651 70.3694 104.596 70.2939 104.539 70.221C104.537 70.2171 104.533 70.2133 104.53 70.2095C104.477 70.1391 104.42 70.0713 104.363 70.0048C104.344 69.9817 104.324 69.96 104.304 69.9382C104.262 69.8896 104.218 69.8423 104.173 69.795C104.152 69.7719 104.129 69.7476 104.106 69.7246C104.06 69.6773 104.013 69.6325 103.966 69.5864C103.946 69.5672 103.925 69.5468 103.905 69.5276C103.837 69.4649 103.769 69.4035 103.699 69.3446C103.699 69.3446 103.699 69.3446 103.697 69.3434C103.695 69.3408 103.692 69.3395 103.69 69.3382C103.612 69.273 103.531 69.2103 103.449 69.1489C103.428 69.1323 103.406 69.1169 103.384 69.1003C103.302 69.0414 103.219 68.9826 103.133 68.9289C103.129 68.9263 103.127 68.9237 103.123 68.9212C103.035 68.8649 102.945 68.8124 102.854 68.7613C102.831 68.7485 102.807 68.7357 102.784 68.7229C102.7 68.6781 102.615 68.6346 102.529 68.595C102.521 68.5911 102.512 68.586 102.501 68.5809C102.407 68.5374 102.312 68.499 102.215 68.4619C102.19 68.453 102.165 68.444 102.141 68.4351C102.055 68.4044 101.968 68.3749 101.881 68.3481C101.867 68.3442 101.853 68.3391 101.839 68.3353C101.74 68.3071 101.639 68.2815 101.538 68.2598C101.512 68.2547 101.487 68.2496 101.463 68.2444C101.376 68.2265 101.287 68.2112 101.199 68.1997C101.186 68.1984 101.172 68.1945 101.159 68.1933C101.147 68.192 101.135 68.1907 101.122 68.1881L39.5533 60.6378C39.4625 60.6262 39.3717 60.6186 39.2808 60.6134C39.2565 60.6122 39.231 60.6109 39.2066 60.6096C39.1337 60.6058 39.0608 60.6045 38.9879 60.6045C38.97 60.6045 38.9521 60.6045 38.9342 60.6045C38.8472 60.6045 38.7602 60.6096 38.6745 60.616C38.654 60.6173 38.6335 60.6198 38.6131 60.6211C38.544 60.6275 38.4762 60.6339 38.4084 60.6442C38.3853 60.6467 38.3636 60.6505 38.3406 60.6531C38.2561 60.6659 38.173 60.68 38.0911 60.6979C38.0821 60.7004 38.0719 60.703 38.063 60.7043C37.99 60.7209 37.9171 60.7388 37.8455 60.7593C37.8224 60.7657 37.8007 60.7721 37.7777 60.7785C37.7086 60.7989 37.6408 60.8207 37.5743 60.8437C37.5627 60.8476 37.55 60.8514 37.5384 60.8565C37.4617 60.8847 37.3849 60.9154 37.3107 60.9473C37.2915 60.9563 37.2723 60.9653 37.2532 60.9729C37.1943 60.9998 37.1355 61.0279 37.0766 61.0574C37.0587 61.0663 37.0395 61.0753 37.0216 61.0855C36.95 61.1239 36.8796 61.1636 36.8092 61.2058C36.7964 61.2134 36.7849 61.2211 36.7721 61.2288C36.7146 61.2646 36.657 61.303 36.6007 61.3414C36.5815 61.3542 36.5636 61.367 36.5444 61.381C36.483 61.4258 36.4216 61.4719 36.3615 61.5205C36.3576 61.5243 36.3525 61.5269 36.3487 61.5307C36.286 61.5819 36.2246 61.6369 36.1632 61.6919C36.1466 61.7073 36.1312 61.7226 36.1146 61.738C36.0672 61.784 36.0199 61.8301 35.9739 61.8774C35.9611 61.8902 35.9483 61.903 35.9355 61.9171C35.8792 61.9772 35.8255 62.0386 35.773 62.1013C35.7615 62.1154 35.75 62.1294 35.7385 62.1435C35.6963 62.196 35.6553 62.2484 35.6157 62.3021C35.608 62.3124 35.599 62.3226 35.5914 62.3341C35.585 62.3431 35.5786 62.352 35.5722 62.3623C35.544 62.4019 35.5172 62.4416 35.4903 62.4812C35.4762 62.5017 35.4621 62.5222 35.4493 62.5439C35.4161 62.5964 35.3828 62.6501 35.3508 62.7051C35.3457 62.7141 35.3393 62.723 35.3342 62.732C35.2971 62.7959 35.2626 62.8612 35.228 62.9277C35.2178 62.9469 35.2088 62.9674 35.1986 62.9878C35.1756 63.0352 35.1526 63.0825 35.1308 63.1311C35.1193 63.1567 35.1091 63.1823 35.0975 63.2079C35.0784 63.2527 35.0604 63.2962 35.0425 63.3409C35.0323 63.3678 35.0208 63.3959 35.0105 63.4241C34.9939 63.4689 34.9773 63.5149 34.9619 63.561C34.953 63.5878 34.9427 63.616 34.9338 63.6441C34.9184 63.694 34.9031 63.7452 34.889 63.7951C34.8826 63.8194 34.8749 63.8424 34.8685 63.8667C34.8481 63.9422 34.8289 64.0177 34.8123 64.0957C34.6306 64.9234 34.4502 65.7511 34.2686 66.5801C34.2852 66.5021 34.3069 66.4266 34.33 66.3524C34.3376 66.3281 34.3466 66.3051 34.3555 66.2821C34.3735 66.2322 34.3914 66.1836 34.4118 66.1362C34.4234 66.1094 34.4361 66.0838 34.4477 66.0582C34.4681 66.0147 34.4899 65.9725 34.5116 65.9315C34.5257 65.9059 34.5398 65.8804 34.5551 65.8561C34.5794 65.8151 34.605 65.7767 34.6319 65.7371C34.6498 65.7115 34.6664 65.6846 34.6856 65.6603C34.6958 65.6475 34.7061 65.6335 34.7163 65.6207C34.747 65.5823 34.779 65.5439 34.811 65.5081C34.8187 65.5004 34.8251 65.4914 34.8327 65.4825C34.8724 65.439 34.9146 65.3981 34.9581 65.3597C34.9683 65.3494 34.9798 65.3405 34.9901 65.3315C35.0259 65.3008 35.0617 65.2714 35.0988 65.2433C35.1103 65.2343 35.1231 65.2241 35.1346 65.2151C35.182 65.1806 35.2293 65.1486 35.2792 65.1179C35.2869 65.1141 35.2946 65.1102 35.3009 65.1051C35.3444 65.0795 35.3892 65.0552 35.4353 65.0322C35.4506 65.0245 35.4647 65.0181 35.4801 65.0104C35.5274 64.9887 35.576 64.9682 35.6246 64.949C35.631 64.9465 35.6374 64.9439 35.6438 64.9413C35.6988 64.9209 35.7564 64.9042 35.8139 64.8876C35.8293 64.8838 35.8447 64.8799 35.86 64.8761C35.9061 64.8646 35.9534 64.8544 36.002 64.8467C36.0161 64.8441 36.0301 64.8416 36.0442 64.839C36.1043 64.83 36.1645 64.8224 36.2259 64.8185C36.2387 64.8185 36.2515 64.8185 36.263 64.8173C36.3142 64.8147 36.3653 64.8134 36.4178 64.8147C36.4357 64.8147 36.4523 64.8147 36.4702 64.816C36.5342 64.8185 36.5982 64.8224 36.6634 64.8313L98.1874 72.3856C98.2578 72.3946 98.3256 72.4074 98.3947 72.4215C98.4126 72.4253 98.4292 72.4304 98.4471 72.4343C98.497 72.447 98.5469 72.4611 98.5955 72.4765C98.6147 72.4829 98.6339 72.4893 98.6531 72.4957C98.7107 72.5161 98.7682 72.5392 98.8245 72.5635C98.8309 72.566 98.836 72.5686 98.8424 72.5711C98.9038 72.5993 98.964 72.6313 99.0228 72.6645C99.0395 72.6735 99.0561 72.6837 99.0727 72.6939C99.1162 72.7208 99.1597 72.7477 99.2019 72.7771C99.2185 72.7886 99.2339 72.7989 99.2505 72.8104C99.3055 72.85 99.3605 72.891 99.413 72.9357C99.413 72.9357 99.4156 72.9383 99.4168 72.9396C99.468 72.9831 99.5166 73.0291 99.5652 73.0765C99.5755 73.0867 99.5857 73.0969 99.5959 73.1072C99.6433 73.1545 99.688 73.2044 99.7315 73.2556C99.7392 73.2645 99.7456 73.2735 99.7533 73.2824C99.793 73.3298 99.8313 73.3797 99.8672 73.4296C99.8736 73.4385 99.88 73.4475 99.8864 73.4564C99.9247 73.5114 99.9618 73.569 99.9977 73.6278C100.005 73.6406 100.013 73.6534 100.021 73.6662C100.055 73.7264 100.09 73.7878 100.119 73.8504V73.853C100.15 73.9157 100.177 73.9797 100.202 74.0436C100.207 74.0577 100.214 74.0718 100.219 74.0858C100.243 74.1498 100.265 74.215 100.284 74.2816C100.288 74.2931 100.291 74.3046 100.293 74.3148C100.31 74.3762 100.325 74.4376 100.338 74.4991C100.34 74.5106 100.343 74.5221 100.346 74.5323C100.358 74.6001 100.369 74.6692 100.375 74.7383C100.376 74.7536 100.378 74.769 100.379 74.7843C100.385 74.856 100.389 74.9276 100.39 74.9993L100.704 124.585C100.714 125.877 99.6803 126.696 98.4765 126.546L36.2888 118.964L39.6339 120.063L101.448 127.653C103.99 127.965 106.082 126.005 106.064 123.279L105.751 73.693L105.757 73.6853Z" fill="url(#paint5_linear_11402_44073)" fill-opacity="0.3"/>
<path d="M105.757 73.6853C105.757 73.5881 105.752 73.4909 105.747 73.3949C105.746 73.3642 105.742 73.3348 105.741 73.3041C105.735 73.2363 105.729 73.1698 105.721 73.102C105.718 73.0687 105.714 73.0354 105.709 73.0022C105.7 72.9357 105.689 72.8691 105.678 72.8026C105.673 72.7732 105.669 72.7438 105.662 72.7143C105.645 72.6197 105.625 72.5263 105.604 72.4342V72.4303C105.582 72.3395 105.558 72.2487 105.531 72.1591C105.522 72.131 105.513 72.1016 105.504 72.0734C105.485 72.0094 105.464 71.9468 105.441 71.8841C105.43 71.8534 105.419 71.8214 105.408 71.7907C105.385 71.728 105.361 71.6666 105.335 71.6039C105.323 71.577 105.313 71.5502 105.302 71.5233C105.265 71.4363 105.226 71.3506 105.185 71.2649C105.184 71.2623 105.183 71.2598 105.181 71.2572C105.142 71.1753 105.1 71.0947 105.056 71.0141C105.042 70.9886 105.027 70.963 105.013 70.9361C104.981 70.8785 104.947 70.8222 104.913 70.766C104.896 70.7378 104.878 70.7097 104.862 70.6828C104.826 70.6265 104.79 70.5715 104.753 70.5178C104.736 70.4935 104.721 70.4704 104.704 70.4461C104.651 70.3694 104.596 70.2939 104.539 70.221C104.537 70.2171 104.533 70.2133 104.53 70.2095C104.477 70.1391 104.42 70.0713 104.363 70.0048C104.344 69.9817 104.324 69.96 104.304 69.9382C104.262 69.8896 104.218 69.8423 104.173 69.795C104.152 69.7719 104.129 69.7476 104.106 69.7246C104.06 69.6773 104.013 69.6325 103.966 69.5864C103.946 69.5672 103.925 69.5468 103.905 69.5276C103.837 69.4649 103.769 69.4035 103.699 69.3446C103.699 69.3446 103.699 69.3446 103.697 69.3434C103.695 69.3408 103.692 69.3395 103.69 69.3382C103.612 69.273 103.531 69.2103 103.449 69.1489C103.428 69.1323 103.406 69.1169 103.384 69.1003C103.302 69.0414 103.219 68.9826 103.133 68.9289C103.129 68.9263 103.127 68.9237 103.123 68.9212C103.035 68.8649 102.945 68.8124 102.854 68.7613C102.831 68.7485 102.807 68.7357 102.784 68.7229C102.7 68.6781 102.615 68.6346 102.529 68.595C102.521 68.5911 102.512 68.586 102.501 68.5809C102.407 68.5374 102.312 68.499 102.215 68.4619C102.19 68.453 102.165 68.444 102.141 68.4351C102.055 68.4044 101.968 68.3749 101.881 68.3481C101.867 68.3442 101.853 68.3391 101.839 68.3353C101.74 68.3071 101.639 68.2815 101.538 68.2598C101.512 68.2547 101.487 68.2496 101.463 68.2444C101.376 68.2265 101.287 68.2112 101.199 68.1997C101.186 68.1984 101.172 68.1945 101.159 68.1933C101.147 68.192 101.135 68.1907 101.122 68.1881L39.5533 60.6378C39.4625 60.6262 39.3717 60.6186 39.2808 60.6134C39.2565 60.6122 39.231 60.6109 39.2066 60.6096C39.1337 60.6058 39.0608 60.6045 38.9879 60.6045C38.97 60.6045 38.9521 60.6045 38.9342 60.6045C38.8472 60.6045 38.7602 60.6096 38.6745 60.616C38.654 60.6173 38.6335 60.6198 38.6131 60.6211C38.544 60.6275 38.4762 60.6339 38.4084 60.6442C38.3853 60.6467 38.3636 60.6505 38.3406 60.6531C38.2561 60.6659 38.173 60.68 38.0911 60.6979C38.0821 60.7004 38.0719 60.703 38.063 60.7043C37.99 60.7209 37.9171 60.7388 37.8455 60.7593C37.8224 60.7657 37.8007 60.7721 37.7777 60.7785C37.7086 60.7989 37.6408 60.8207 37.5743 60.8437C37.5627 60.8476 37.55 60.8514 37.5384 60.8565C37.4617 60.8847 37.3849 60.9154 37.3107 60.9473C37.2915 60.9563 37.2723 60.9653 37.2532 60.9729C37.1943 60.9998 37.1355 61.0279 37.0766 61.0574C37.0587 61.0663 37.0395 61.0753 37.0216 61.0855C36.95 61.1239 36.8796 61.1636 36.8092 61.2058C36.7964 61.2134 36.7849 61.2211 36.7721 61.2288C36.7146 61.2646 36.657 61.303 36.6007 61.3414C36.5815 61.3542 36.5636 61.367 36.5444 61.381C36.483 61.4258 36.4216 61.4719 36.3615 61.5205C36.3576 61.5243 36.3525 61.5269 36.3487 61.5307C36.286 61.5819 36.2246 61.6369 36.1632 61.6919C36.1466 61.7073 36.1312 61.7226 36.1146 61.738C36.0672 61.784 36.0199 61.8301 35.9739 61.8774C35.9611 61.8902 35.9483 61.903 35.9355 61.9171C35.8792 61.9772 35.8255 62.0386 35.773 62.1013C35.7615 62.1154 35.75 62.1294 35.7385 62.1435C35.6963 62.196 35.6553 62.2484 35.6157 62.3021C35.608 62.3124 35.599 62.3226 35.5914 62.3341C35.585 62.3431 35.5786 62.352 35.5722 62.3623C35.544 62.4019 35.5172 62.4416 35.4903 62.4812C35.4762 62.5017 35.4621 62.5222 35.4493 62.5439C35.4161 62.5964 35.3828 62.6501 35.3508 62.7051C35.3457 62.7141 35.3393 62.723 35.3342 62.732C35.2971 62.7959 35.2626 62.8612 35.228 62.9277C35.2178 62.9469 35.2088 62.9674 35.1986 62.9878C35.1756 63.0352 35.1526 63.0825 35.1308 63.1311C35.1193 63.1567 35.1091 63.1823 35.0975 63.2079C35.0784 63.2527 35.0604 63.2962 35.0425 63.3409C35.0323 63.3678 35.0208 63.3959 35.0105 63.4241C34.9939 63.4689 34.9773 63.5149 34.9619 63.561C34.953 63.5878 34.9427 63.616 34.9338 63.6441C34.9184 63.694 34.9031 63.7452 34.889 63.7951C34.8826 63.8194 34.8749 63.8424 34.8685 63.8667C34.8481 63.9422 34.8289 64.0177 34.8123 64.0957C34.6306 64.9234 34.4502 65.7511 34.2686 66.5801C34.2852 66.5021 34.3069 66.4266 34.33 66.3524C34.3376 66.3281 34.3466 66.3051 34.3555 66.2821C34.3735 66.2322 34.3914 66.1836 34.4118 66.1362C34.4234 66.1094 34.4361 66.0838 34.4477 66.0582C34.4681 66.0147 34.4899 65.9725 34.5116 65.9315C34.5257 65.9059 34.5398 65.8804 34.5551 65.8561C34.5794 65.8151 34.605 65.7767 34.6319 65.7371C34.6498 65.7115 34.6664 65.6846 34.6856 65.6603C34.6958 65.6475 34.7061 65.6335 34.7163 65.6207C34.747 65.5823 34.779 65.5439 34.811 65.5081C34.8187 65.5004 34.8251 65.4914 34.8327 65.4825C34.8724 65.439 34.9146 65.3981 34.9581 65.3597C34.9683 65.3494 34.9798 65.3405 34.9901 65.3315C35.0259 65.3008 35.0617 65.2714 35.0988 65.2433C35.1103 65.2343 35.1231 65.2241 35.1346 65.2151C35.182 65.1806 35.2293 65.1486 35.2792 65.1179C35.2869 65.1141 35.2946 65.1102 35.3009 65.1051C35.3444 65.0795 35.3892 65.0552 35.4353 65.0322C35.4506 65.0245 35.4647 65.0181 35.4801 65.0104C35.5274 64.9887 35.576 64.9682 35.6246 64.949C35.631 64.9465 35.6374 64.9439 35.6438 64.9413C35.6988 64.9209 35.7564 64.9042 35.8139 64.8876C35.8293 64.8838 35.8447 64.8799 35.86 64.8761C35.9061 64.8646 35.9534 64.8544 36.002 64.8467C36.0161 64.8441 36.0301 64.8416 36.0442 64.839C36.1043 64.83 36.1645 64.8224 36.2259 64.8185C36.2387 64.8185 36.2515 64.8185 36.263 64.8173C36.3142 64.8147 36.3653 64.8134 36.4178 64.8147C36.4357 64.8147 36.4523 64.8147 36.4702 64.816C36.5342 64.8185 36.5982 64.8224 36.6634 64.8313L98.1874 72.3856C98.2578 72.3946 98.3256 72.4074 98.3947 72.4215C98.4126 72.4253 98.4292 72.4304 98.4471 72.4343C98.497 72.447 98.5469 72.4611 98.5955 72.4765C98.6147 72.4829 98.6339 72.4893 98.6531 72.4957C98.7107 72.5161 98.7682 72.5392 98.8245 72.5635C98.8309 72.566 98.836 72.5686 98.8424 72.5711C98.9038 72.5993 98.964 72.6313 99.0228 72.6645C99.0395 72.6735 99.0561 72.6837 99.0727 72.6939C99.1162 72.7208 99.1597 72.7477 99.2019 72.7771C99.2185 72.7886 99.2339 72.7989 99.2505 72.8104C99.3055 72.85 99.3605 72.891 99.413 72.9357C99.413 72.9357 99.4156 72.9383 99.4168 72.9396C99.468 72.9831 99.5166 73.0291 99.5652 73.0765C99.5755 73.0867 99.5857 73.0969 99.5959 73.1072C99.6433 73.1545 99.688 73.2044 99.7315 73.2556C99.7392 73.2645 99.7456 73.2735 99.7533 73.2824C99.793 73.3298 99.8313 73.3797 99.8672 73.4296C99.8736 73.4385 99.88 73.4475 99.8864 73.4564C99.9247 73.5114 99.9618 73.569 99.9977 73.6278C100.005 73.6406 100.013 73.6534 100.021 73.6662C100.055 73.7264 100.09 73.7878 100.119 73.8504V73.853C100.15 73.9157 100.177 73.9797 100.202 74.0436C100.207 74.0577 100.214 74.0718 100.219 74.0858C100.243 74.1498 100.265 74.215 100.284 74.2816C100.288 74.2931 100.291 74.3046 100.293 74.3148C100.31 74.3762 100.325 74.4376 100.338 74.4991C100.34 74.5106 100.343 74.5221 100.346 74.5323C100.358 74.6001 100.369 74.6692 100.375 74.7383C100.376 74.7536 100.378 74.769 100.379 74.7843C100.385 74.856 100.389 74.9276 100.39 74.9993L100.704 124.585C100.714 125.877 99.6803 126.696 98.4765 126.546L36.2888 118.964L39.6339 120.063L101.448 127.653C103.99 127.965 106.082 126.005 106.064 123.279L105.751 73.693L105.757 73.6853Z" fill="url(#paint6_linear_11402_44073)" fill-opacity="0.3"/>
<path d="M94.8511 78.2188L94.3945 78.495L94.8511 78.2188Z" fill="#EAEAEA"/>
<path d="M94.8511 78.2188L94.3945 78.495L94.8511 78.2188Z" fill="#EAEAEA"/>
<path d="M94.8511 78.2188L94.3945 78.495L94.8511 78.2188Z" fill="#EAEAEA"/>
<path d="M94.8511 78.2188L94.3945 78.495L94.8511 78.2188Z" fill="#EAEAEA"/>
<path d="M94.982 82.958C96.6029 81.9787 97.0585 79.7638 95.9994 78.011C94.9404 76.2581 92.7678 75.6311 91.1469 76.6105C89.5259 77.5899 89.0704 79.8047 90.1295 81.5576C91.1885 83.3104 93.3611 83.9374 94.982 82.958Z" fill="url(#paint7_linear_11402_44073)"/>
<path d="M94.4244 122.563C96.0453 121.584 96.5008 119.369 95.4418 117.616C94.3828 115.863 92.2102 115.236 90.5893 116.215C88.9683 117.195 88.5128 119.41 89.5718 121.163C90.6309 122.915 92.8034 123.542 94.4244 122.563Z" fill="url(#paint8_linear_11402_44073)"/>
<path d="M43.0152 76.7266C44.6361 75.7472 45.0917 73.5323 44.0326 71.7795C42.9736 70.0267 40.801 69.3997 39.1801 70.379C37.5592 71.3584 37.1036 73.5733 38.1627 75.3261C39.2217 77.0789 41.3943 77.706 43.0152 76.7266Z" fill="url(#paint9_linear_11402_44073)"/>
<path d="M43.0152 115.789C44.6361 114.81 45.0917 112.595 44.0326 110.842C42.9736 109.089 40.801 108.462 39.1801 109.442C37.5592 110.421 37.1036 112.636 38.1627 114.389C39.2217 116.141 41.3943 116.768 43.0152 115.789Z" fill="url(#paint10_linear_11402_44073)"/>
<path d="M94.1849 80.155C94.1363 79.1927 93.3449 78.3997 92.4187 78.384C91.4924 78.3684 90.7809 79.1363 90.8295 80.0986C90.8781 81.0609 91.6695 81.8539 92.5958 81.8696C93.522 81.8852 94.2335 81.1189 94.1849 80.1566V80.155Z" fill="#C0D4EC"/>
<path d="M93.6253 119.76C93.5768 118.798 92.7853 118.005 91.8591 117.989C90.9329 117.973 90.2213 118.741 90.2699 119.704C90.3185 120.666 91.11 121.459 92.0362 121.475C92.9624 121.49 93.6739 120.724 93.6253 119.762V119.76Z" fill="#C0D4EC"/>
<path d="M42.2181 73.9216C42.1695 72.9593 41.3781 72.1663 40.4519 72.1506C39.5256 72.135 38.8141 72.9029 38.8627 73.8652C38.9113 74.8275 39.7027 75.6205 40.629 75.6362C41.5552 75.6518 42.2667 74.8855 42.2181 73.9232V73.9216Z" fill="#C0D4EC"/>
<path d="M42.2181 112.985C42.1695 112.023 41.3781 111.23 40.4519 111.214C39.5256 111.198 38.8141 111.966 38.8627 112.929C38.9113 113.891 39.7027 114.684 40.629 114.7C41.5552 114.715 42.2667 113.949 42.2181 112.987V112.985Z" fill="#C0D4EC"/>
<path d="M57.9761 25.5922C53.6086 28.5346 50.7762 33.7708 50.8158 39.9806L50.9604 57.4413C50.9489 57.5526 50.9758 58.0388 50.9758 58.0388C51.2444 59.0277 52.5672 59.8631 54.6077 60.2967C57.7714 60.9697 61.5274 60.2788 62.996 58.7539C63.5359 58.1936 63.5129 57.6691 63.5154 57.0371L63.3696 39.3512C63.3619 38.1934 63.5768 37.115 63.967 36.1606C64.622 34.5615 66.2519 33.5598 67.9725 33.7133C67.9827 33.7133 67.9917 33.7146 68.0019 33.7158L82.9646 35.1256C86.7936 35.4864 89.9304 39.3179 89.9585 43.6676L90.1057 61.6618C90.1057 61.6618 90.075 62.1684 90.0711 62.4127C90.0583 63.5551 91.4131 64.64 93.7261 65.1312C96.8898 65.8042 100.646 65.1133 102.114 63.5884C102.594 63.0908 102.771 62.565 102.681 62.0609C102.633 61.791 102.658 61.0336 102.658 61.0336L102.511 43.0394C102.447 32.8395 94.6625 23.814 85.1586 22.9185L70.1947 21.51C66.3529 21.1479 62.8105 22.1688 59.9551 24.1876" fill="url(#paint11_radial_11402_44073)"/>
<path d="M73.2679 89.2184C73.2679 89.0753 73.2597 88.9338 73.2515 88.7923C73.2482 88.7545 73.2465 88.7166 73.2432 88.6772C73.2334 88.5587 73.2202 88.4403 73.2054 88.3219C73.2021 88.2988 73.2005 88.2742 73.1972 88.2511C73.1774 88.113 73.1528 87.9764 73.1264 87.8415C73.1199 87.807 73.1116 87.7724 73.1051 87.7395C73.082 87.6293 73.0557 87.5208 73.0261 87.4122C73.0179 87.3809 73.0097 87.3481 73.0014 87.3168C72.9652 87.1836 72.9241 87.052 72.8797 86.922C72.8715 86.8957 72.8616 86.871 72.8517 86.8447C72.8139 86.7361 72.7728 86.6292 72.73 86.5239C72.7169 86.4894 72.7021 86.4548 72.6889 86.4219C72.6363 86.2953 72.5803 86.1686 72.5195 86.0452C72.5145 86.0354 72.5096 86.0272 72.5063 86.0173C72.4504 85.9021 72.3895 85.7886 72.3287 85.6768C72.3106 85.6439 72.2925 85.611 72.2727 85.5781C72.2135 85.4728 72.151 85.3692 72.0852 85.2672C72.0753 85.2524 72.0671 85.2359 72.0572 85.2211C71.9832 85.106 71.9059 84.9958 71.8269 84.8856C71.8056 84.8576 71.7842 84.828 71.7644 84.8C71.6986 84.7112 71.6296 84.624 71.5605 84.5368C71.5424 84.5138 71.5243 84.4908 71.5045 84.4677C71.419 84.3641 71.3302 84.2638 71.2381 84.1651C71.2183 84.1437 71.1969 84.1223 71.1772 84.1009C71.1015 84.0203 71.0242 83.943 70.9453 83.8657C70.9206 83.841 70.8959 83.8163 70.8696 83.7933C70.7725 83.7012 70.6722 83.6124 70.5702 83.5268C70.5571 83.5153 70.5439 83.5054 70.5307 83.4939C70.4386 83.4183 70.3465 83.3459 70.2511 83.2752C70.2215 83.2538 70.1919 83.2324 70.1639 83.211C70.0636 83.1386 69.9616 83.0679 69.858 83.0004C69.8497 82.9939 69.8399 82.9889 69.8316 82.9823C69.7379 82.9215 69.6425 82.8639 69.5454 82.8096C69.5191 82.7948 69.4911 82.78 69.4648 82.7652C69.3941 82.7257 69.3234 82.6879 69.2526 82.6517C69.2164 82.6336 69.1786 82.6155 69.1408 82.5974C69.0783 82.5662 69.0141 82.5366 68.9499 82.5086C68.9088 82.4905 68.8677 82.4741 68.8266 82.456C68.7641 82.4296 68.7032 82.405 68.6407 82.3803C68.5979 82.3638 68.5552 82.3474 68.5124 82.3326C68.4499 82.3096 68.3874 82.2882 68.3232 82.2684C68.2805 82.2553 68.2377 82.2405 68.1933 82.2273C68.1275 82.2076 68.0617 82.1895 67.9959 82.173C67.9548 82.1615 67.912 82.15 67.8709 82.1401C67.7985 82.122 67.7245 82.1072 67.6504 82.0924C67.6143 82.0859 67.5797 82.0776 67.5435 82.071C67.4333 82.0513 67.3231 82.0332 67.2113 82.0201C67.0797 82.0036 66.9481 81.9937 66.8198 81.9872C66.7819 81.9855 66.7441 81.9839 66.7063 81.9822C66.6092 81.9789 66.5138 81.9789 66.4184 81.9806C66.3822 81.9806 66.346 81.9806 66.3098 81.9822C66.1832 81.9871 66.0581 81.9954 65.9364 82.0085C65.9249 82.0085 65.915 82.0118 65.9052 82.0135C65.7917 82.0266 65.6798 82.0431 65.5696 82.0645C65.5334 82.071 65.4972 82.0776 65.4627 82.0858C65.3722 82.1039 65.2834 82.1253 65.1946 82.1484C65.1633 82.1566 65.1304 82.1648 65.0991 82.173C64.984 82.2059 64.8705 82.2405 64.7586 82.2816C64.6731 82.3128 64.5909 82.3474 64.5086 82.3819C64.4675 82.3984 64.4247 82.4132 64.3852 82.4329C64.2635 82.4889 64.1434 82.5481 64.0266 82.6122C62.3356 83.5449 61.2187 85.4317 61.2335 87.7379C61.2467 89.7711 62.135 91.6907 63.5118 93.0412L61.7073 107.875L72.1263 102.128L71.0621 93.969C72.4241 92.954 73.2893 91.2499 73.2761 89.2167L73.2679 89.2184Z" fill="#12AFFF"/>
<path d="M73.2679 89.2184C73.2679 89.0753 73.2597 88.9338 73.2515 88.7923C73.2482 88.7545 73.2465 88.7166 73.2432 88.6772C73.2334 88.5587 73.2202 88.4403 73.2054 88.3219C73.2021 88.2988 73.2005 88.2742 73.1972 88.2511C73.1774 88.113 73.1528 87.9764 73.1264 87.8415C73.1199 87.807 73.1116 87.7724 73.1051 87.7395C73.082 87.6293 73.0557 87.5208 73.0261 87.4122C73.0179 87.3809 73.0097 87.3481 73.0014 87.3168C72.9652 87.1836 72.9241 87.052 72.8797 86.922C72.8715 86.8957 72.8616 86.871 72.8517 86.8447C72.8139 86.7361 72.7728 86.6292 72.73 86.5239C72.7169 86.4894 72.7021 86.4548 72.6889 86.4219C72.6363 86.2953 72.5803 86.1686 72.5195 86.0452C72.5145 86.0354 72.5096 86.0272 72.5063 86.0173C72.4504 85.9021 72.3895 85.7886 72.3287 85.6768C72.3106 85.6439 72.2925 85.611 72.2727 85.5781C72.2135 85.4728 72.151 85.3692 72.0852 85.2672C72.0753 85.2524 72.0671 85.2359 72.0572 85.2211C71.9832 85.106 71.9059 84.9958 71.8269 84.8856C71.8056 84.8576 71.7842 84.828 71.7644 84.8C71.6986 84.7112 71.6296 84.624 71.5605 84.5368C71.5424 84.5138 71.5243 84.4908 71.5045 84.4677C71.419 84.3641 71.3302 84.2638 71.2381 84.1651C71.2183 84.1437 71.1969 84.1223 71.1772 84.1009C71.1015 84.0203 71.0242 83.943 70.9453 83.8657C70.9206 83.841 70.8959 83.8163 70.8696 83.7933C70.7725 83.7012 70.6722 83.6124 70.5702 83.5268C70.5571 83.5153 70.5439 83.5054 70.5307 83.4939C70.4386 83.4183 70.3465 83.3459 70.2511 83.2752C70.2215 83.2538 70.1919 83.2324 70.1639 83.211C70.0636 83.1386 69.9616 83.0679 69.858 83.0004C69.8497 82.9939 69.8399 82.9889 69.8316 82.9823C69.7379 82.9215 69.6425 82.8639 69.5454 82.8096C69.5191 82.7948 69.4911 82.78 69.4648 82.7652C69.3941 82.7257 69.3234 82.6879 69.2526 82.6517C69.2164 82.6336 69.1786 82.6155 69.1408 82.5974C69.0783 82.5662 69.0141 82.5366 68.9499 82.5086C68.9088 82.4905 68.8677 82.4741 68.8266 82.456C68.7641 82.4296 68.7032 82.405 68.6407 82.3803C68.5979 82.3638 68.5552 82.3474 68.5124 82.3326C68.4499 82.3096 68.3874 82.2882 68.3232 82.2684C68.2805 82.2553 68.2377 82.2405 68.1933 82.2273C68.1275 82.2076 68.0617 82.1895 67.9959 82.173C67.9548 82.1615 67.912 82.15 67.8709 82.1401C67.7985 82.122 67.7245 82.1072 67.6504 82.0924C67.6143 82.0859 67.5797 82.0776 67.5435 82.071C67.4333 82.0513 67.3231 82.0332 67.2113 82.0201C67.0797 82.0036 66.9481 81.9937 66.8198 81.9872C66.7819 81.9855 66.7441 81.9839 66.7063 81.9822C66.6092 81.9789 66.5138 81.9789 66.4184 81.9806C66.3822 81.9806 66.346 81.9806 66.3098 81.9822C66.1832 81.9871 66.0581 81.9954 65.9364 82.0085C65.9249 82.0085 65.915 82.0118 65.9052 82.0135C65.7917 82.0266 65.6798 82.0431 65.5696 82.0645C65.5334 82.071 65.4972 82.0776 65.4627 82.0858C65.3722 82.1039 65.2834 82.1253 65.1946 82.1484C65.1633 82.1566 65.1304 82.1648 65.0991 82.173C64.984 82.2059 64.8705 82.2405 64.7586 82.2816C64.6731 82.3128 64.5909 82.3474 64.5086 82.3819C64.4675 82.3984 64.4247 82.4132 64.3852 82.4329C64.2635 82.4889 64.1434 82.5481 64.0266 82.6122C62.3356 83.5449 61.2187 85.4317 61.2335 87.7379C61.2467 89.7711 62.135 91.6907 63.5118 93.0412L61.7073 107.875L72.1263 102.128L71.0621 93.969C72.4241 92.954 73.2893 91.2499 73.2761 89.2167L73.2679 89.2184Z" fill="url(#paint12_linear_11402_44073)" fill-opacity="0.7"/>
<path d="M71.0547 93.9693C72.4167 92.9544 73.2819 91.2502 73.2687 89.217C73.2687 89.0739 73.2605 88.9325 73.2523 88.791C73.249 88.7532 73.2474 88.7153 73.2441 88.6758C73.2342 88.5574 73.221 88.439 73.2062 88.3205C73.2029 88.2975 73.2013 88.2728 73.198 88.2498C73.1783 88.1116 73.1536 87.9751 73.1273 87.8402C73.1207 87.8073 73.1141 87.7761 73.1059 87.7432L63.5027 93.0399L61.6982 107.874L72.1173 102.127L71.053 93.9677L71.0547 93.9693Z" fill="url(#paint13_radial_11402_44073)" fill-opacity="0.9"/>
<path d="M72.1173 102.131L61.6982 107.878L73.0483 109.272L72.1173 102.131Z" fill="#129FEF"/>
<defs>
<linearGradient id="paint0_linear_11402_44073" x1="39.6945" y1="94.8403" x2="133.882" y2="158.144" gradientUnits="userSpaceOnUse">
<stop stop-color="#13B8FF" stop-opacity="0"/>
<stop offset="0.666933" stop-color="#13B8FF"/>
<stop offset="1" stop-color="#4FD8D5"/>
</linearGradient>
<radialGradient id="paint1_radial_11402_44073" cx="0" cy="0" r="1" gradientUnits="userSpaceOnUse" gradientTransform="translate(105.727 125.246) rotate(157.434) scale(68.054 60.5208)">
<stop stop-color="#2E86FE"/>
<stop offset="1" stop-color="#2E86FE" stop-opacity="0"/>
</radialGradient>
<linearGradient id="paint2_linear_11402_44073" x1="104.937" y1="67.8746" x2="143.211" y2="134.688" gradientUnits="userSpaceOnUse">
<stop stop-color="#2E86FE" stop-opacity="0"/>
<stop offset="0.0572917" stop-color="#1C6CD9"/>
<stop offset="0.744792" stop-color="#2E86FE" stop-opacity="0"/>
</linearGradient>
<radialGradient id="paint3_radial_11402_44073" cx="0" cy="0" r="1" gradientUnits="userSpaceOnUse" gradientTransform="translate(53.6936 85.0086) rotate(53.9172) scale(79.8274 103.008)">
<stop offset="0.213542" stop-color="#F8FDFF"/>
<stop offset="1" stop-color="#66A3F3"/>
</radialGradient>
<radialGradient id="paint4_radial_11402_44073" cx="0" cy="0" r="1" gradientUnits="userSpaceOnUse" gradientTransform="translate(67.4586 90.2744) rotate(103.792) scale(62.2483 81.8392)">
<stop offset="0.207412" stop-color="#F6FCFF" stop-opacity="0"/>
<stop offset="1" stop-color="#4F73C4"/>
</radialGradient>
<linearGradient id="paint5_linear_11402_44073" x1="111.196" y1="131.695" x2="30.0342" y2="63.5953" gradientUnits="userSpaceOnUse">
<stop stop-color="#2E86FE" stop-opacity="0"/>
<stop offset="0.21875" stop-color="#2E86FE"/>
<stop offset="0.473958" stop-color="#2E86FE" stop-opacity="0"/>
<stop offset="0.671875" stop-color="#2E86FE"/>
<stop offset="1" stop-color="#2E86FE" stop-opacity="0"/>
</linearGradient>
<linearGradient id="paint6_linear_11402_44073" x1="93.9631" y1="73.595" x2="129.517" y2="133.367" gradientUnits="userSpaceOnUse">
<stop stop-color="#2E86FE" stop-opacity="0"/>
<stop offset="0.0572917" stop-color="#2E86FE"/>
<stop offset="0.744792" stop-color="#2E86FE" stop-opacity="0"/>
</linearGradient>
<linearGradient id="paint7_linear_11402_44073" x1="95.8684" y1="84.7314" x2="93.0645" y2="79.7844" gradientUnits="userSpaceOnUse">
<stop stop-color="#0C2780"/>
<stop offset="1" stop-color="#ECF6FF"/>
</linearGradient>
<linearGradient id="paint8_linear_11402_44073" x1="95.3108" y1="124.336" x2="92.5068" y2="119.389" gradientUnits="userSpaceOnUse">
<stop stop-color="#0C2780"/>
<stop offset="1" stop-color="#ECF6FF"/>
</linearGradient>
<linearGradient id="paint9_linear_11402_44073" x1="43.9016" y1="78.5" x2="41.0977" y2="73.5529" gradientUnits="userSpaceOnUse">
<stop stop-color="#0C2780"/>
<stop offset="1" stop-color="#ECF6FF"/>
</linearGradient>
<linearGradient id="paint10_linear_11402_44073" x1="43.9016" y1="117.562" x2="41.0977" y2="112.615" gradientUnits="userSpaceOnUse">
<stop stop-color="#0C2780"/>
<stop offset="1" stop-color="#EEF7FF"/>
</linearGradient>
<radialGradient id="paint11_radial_11402_44073" cx="0" cy="0" r="1" gradientUnits="userSpaceOnUse" gradientTransform="translate(76.7595 37.2046) rotate(95.1473) scale(41.7023 59.5162)">
<stop stop-color="#F6FCFF"/>
<stop offset="1" stop-color="#528BD7"/>
</radialGradient>
<linearGradient id="paint12_linear_11402_44073" x1="78.8828" y1="75.8524" x2="63.9259" y2="91.8066" gradientUnits="userSpaceOnUse">
<stop stop-color="#0C2780"/>
<stop offset="1" stop-color="#0C2780" stop-opacity="0"/>
</linearGradient>
<radialGradient id="paint13_radial_11402_44073" cx="0" cy="0" r="1" gradientUnits="userSpaceOnUse" gradientTransform="translate(110.085 97.8086) rotate(175.948) scale(46.562 80.9002)">
<stop stop-color="#0C2780"/>
<stop offset="1" stop-color="#0C2780" stop-opacity="0"/>
</radialGradient>
</defs>
</svg>
