<svg xmlns="http://www.w3.org/2000/svg" fill="none" viewBox="0 0 124 133"><path fill="url(#a)" d="M48.155 109.782c-.665 3.079-3.782 5.006-6.715 3.855-11.085-4.347-20.587-12.603-26.872-23.489-7.301-12.646-9.663-27.806-6.565-42.146 3.097-14.34 11.4-26.684 23.08-34.318 10.19-6.658 22.223-9.257 34.04-7.459 2.92.445 4.676 3.347 4.053 6.235-.666 3.079-3.77 4.94-6.9 4.59-8.953-.999-17.979 1.134-25.687 6.17-9.345 6.108-15.987 15.983-18.464 27.455-2.478 11.472-.589 23.6 5.252 33.717 4.913 8.51 12.283 15.01 20.891 18.548 2.732 1.123 4.51 3.954 3.887 6.842Z"/><path fill="#ECF6FF" d="M65.15 24.332c21.646 2.657 39.313 23.623 39.457 46.827.145 23.204-17.282 39.858-38.929 37.201-21.646-2.657-39.313-23.624-39.46-46.827-.148-23.204 17.285-39.858 38.932-37.201Z"/><path fill="url(#b)" d="M65.15 24.332c21.646 2.657 39.313 23.623 39.457 46.827.145 23.204-17.282 39.858-38.929 37.201-21.646-2.657-39.313-23.624-39.46-46.827-.148-23.204 17.285-39.858 38.932-37.201Z"/><path fill="url(#c)" fill-opacity=".3" d="M65.15 24.332c21.646 2.657 39.313 23.623 39.457 46.827.145 23.204-17.282 39.858-38.929 37.201-21.646-2.657-39.313-23.624-39.46-46.827-.148-23.204 17.285-39.858 38.932-37.201Z"/><path fill="#2E86FE" fill-rule="evenodd" d="M76.898 52.282c-.046-6.858-5.265-13.052-11.66-13.837h.004c-6.398-.785-11.547 4.138-11.505 10.992.043 6.855 5.262 13.049 11.66 13.834 6.394.785 11.544-4.135 11.501-10.99Zm11.462 35.91c-2.167-11.718-11.65-21.522-22.954-22.91h-.003c-11.308-1.39-20.675 6.101-22.701 17.304-.443 2.45 1.38 4.995 3.76 5.288l38.197 4.69c2.381.292 4.178-1.81 3.701-4.372Z" clip-rule="evenodd"/><path fill="url(#d)" fill-rule="evenodd" d="M76.898 52.282c-.046-6.858-5.265-13.052-11.66-13.837h.004c-6.398-.785-11.547 4.138-11.505 10.992.043 6.855 5.262 13.049 11.66 13.834 6.394.785 11.544-4.135 11.501-10.99Zm11.462 35.91c-2.167-11.718-11.65-21.522-22.954-22.91h-.003c-11.308-1.39-20.675 6.101-22.701 17.304-.443 2.45 1.38 4.995 3.76 5.288l38.197 4.69c2.381.292 4.178-1.81 3.701-4.372Z" clip-rule="evenodd"/><path fill="#3ADFD5" d="M121.369 93.234c2.204 2.547 2.254 6.251.116 8.276l-31.795 30c-1.02.967-2.443 1.419-3.907 1.243-1.465-.176-2.907-.97-3.958-2.186l-15.72-18.146c-2.204-2.547-2.254-6.251-.115-8.276 1.07-1.013 2.487-1.413 3.91-1.243 1.424.17 2.857.912 3.957 2.186l11.725 13.538 27.839-26.334a4.9 4.9 0 0 1 3.958-1.287c1.532 0 3.053 1.149 3.99 2.23Z"/><path fill="url(#e)" fill-opacity=".2" d="M121.369 93.234c2.204 2.547 2.254 6.251.116 8.276l-31.795 30c-1.02.967-2.443 1.419-3.907 1.243-1.465-.176-2.907-.97-3.958-2.186l-15.72-18.146c-2.204-2.547-2.254-6.251-.115-8.276 1.07-1.013 2.487-1.413 3.91-1.243 1.424.17 2.857.912 3.957 2.186l11.725 13.538 27.839-26.334a4.9 4.9 0 0 1 3.958-1.287c1.532 0 3.053 1.149 3.99 2.23Z"/><defs><linearGradient id="a" x1="13.823" x2="56.596" y1="87.126" y2="7.417" gradientUnits="userSpaceOnUse"><stop stop-color="#13B8FF" stop-opacity="0"/><stop offset=".5" stop-color="#13B8FF"/><stop offset="1" stop-color="#4FD8D5"/></linearGradient><linearGradient id="b" x1="138.764" x2="-114.142" y1="141.591" y2="37.854" gradientUnits="userSpaceOnUse"><stop stop-color="#2353C7"/><stop offset=".281" stop-color="#DCEFFF"/><stop offset=".442" stop-color="#DCEFFF"/><stop offset=".752" stop-color="#2353C7"/></linearGradient><linearGradient id="d" x1="47.132" x2="108.604" y1="44.66" y2="116.338" gradientUnits="userSpaceOnUse"><stop stop-color="#60CFFF"/><stop offset="1" stop-color="#12AFFF" stop-opacity="0"/></linearGradient><radialGradient id="c" cx="0" cy="0" r="1" gradientTransform="rotate(159.001 34.878 58.553) scale(86.7637 64.212)" gradientUnits="userSpaceOnUse"><stop stop-color="#2E86FE"/><stop offset="1" stop-color="#2E86FE" stop-opacity="0"/></radialGradient><radialGradient id="e" cx="0" cy="0" r="1" gradientTransform="matrix(-86.96145 -12.152 5.05911 -36.20373 113.613 139.425)" gradientUnits="userSpaceOnUse"><stop stop-color="#0C2780"/><stop offset="1" stop-color="#0C2780" stop-opacity="0"/></radialGradient></defs></svg>