<svg xmlns="http://www.w3.org/2000/svg" fill="none" viewBox="0 0 124 134"><path fill="#fff" d="M123.091 62.458c0 27.298-22.13 49.428-49.428 49.428s-49.427-22.13-49.427-49.428c0-27.299 22.129-49.429 49.427-49.429s49.428 22.13 49.428 49.429Z"/><path fill="url(#a)" fill-opacity=".3" d="M123.091 62.458c0 27.298-22.13 49.428-49.428 49.428s-49.427-22.13-49.427-49.428c0-27.299 22.129-49.429 49.427-49.429s49.428 22.13 49.428 49.429Z"/><path fill="url(#b)" fill-opacity=".2" d="M123.091 62.458c0 27.298-22.13 49.428-49.428 49.428s-49.427-22.13-49.427-49.428c0-27.299 22.129-49.429 49.427-49.429s49.428 22.13 49.428 49.429Z"/><path fill="url(#c)" d="M123.091 62.458c0 27.298-22.13 49.428-49.428 49.428s-49.427-22.13-49.427-49.428c0-27.299 22.129-49.429 49.427-49.429s49.428 22.13 49.428 49.429Z"/><path stroke="#11AFFF" stroke-width=".415" d="M123.091 62.458c0 27.298-22.13 49.428-49.428 49.428s-49.427-22.13-49.427-49.428c0-27.299 22.129-49.429 49.427-49.429s49.428 22.13 49.428 49.429Z"/><mask id="f" width="100" height="101" x="24" y="12" maskUnits="userSpaceOnUse" style="mask-type:alpha"><path fill="url(#d)" stroke="url(#e)" stroke-width=".415" d="M123.091 62.457c0 27.298-22.13 49.428-49.428 49.428s-49.427-22.13-49.427-49.428c0-27.299 22.129-49.428 49.427-49.428s49.428 22.13 49.428 49.428Z"/></mask><g mask="url(#f)"><path fill="url(#g)" fill-rule="evenodd" d="M40.023 16.153a.46.46 0 0 0-.053-.022c-.65-.255-.566-1.193.12-1.316.34-.06.61-.12.743-.183.794-.385.376-.966-.37-.834-.982.172-1.951.396-2.92.62-.822.19-1.644.379-2.473.537-.733.14-1.382.507-2.03.873a12.35 12.35 0 0 1-1.087.567c-.224.099-.46.185-.704.185-.306 0-.586-.13-.866-.261a4.502 4.502 0 0 0-.415-.177 4.352 4.352 0 0 0-.717-.161c-.22-.037-.442-.074-.654-.14-.447-.142-.89-.487-.912-.954.535-.618 1.378-.878 2.19-.98.305-.037.607-.058.907-.078.627-.043 1.246-.086 1.863-.282.408-.13.802-.299 1.196-.467.515-.221 1.031-.442 1.58-.575 1.023-.246 2.09-.178 3.14-.107l2.297.154h.012l2.288.154.362.024c.12.008.241.017.362.024.197.013.411.032.636.052 1.103.096 2.47.216 3.392-.197a2.09 2.09 0 0 0 .151-.078c.093-.05.186-.102.29-.125.178-.04.365.011.54.064 1.674.5 3.146.584 4.885.575l2.098-.011h.001l2.099-.011c.343 0 .69-.005 1.019-.1.098-.028.194-.065.29-.102.16-.06.318-.121.487-.146.51-.075 2.047.445 2.128 1.021a.468.468 0 0 1-.068.348.63.63 0 0 1-.246.172l-.052.025c-.37.179-.745.359-1.062.618-.333.27-.603.647-.656 1.072-.01.082-.013.168-.015.253-.005.188-.01.376-.102.537-.101.176-.29.284-.482.352-.294.106-.606.14-.918.173-.176.019-.351.037-.523.069-.826.15-1.418.737-1.308 1.62.013.105.037.21.061.314.051.225.102.45.047.67-.073.282-.313.493-.579.607-.654.279-1.394.313-2.13.347-.526.024-1.052.048-1.541.162-.814.19-1.56.574-2.308.959-.675.348-1.352.696-2.08.901-.09.025-.179.05-.267.073-.687.186-1.315.356-1.793.937-.241.293-.409.635-.576.976-.24.489-.48.977-.936 1.318a1.9 1.9 0 0 1-1.805.24c-1.338-.533-1.82-2.752-2.062-3.997-.04-.207-.073-.434.026-.621.123-.227.439-.201.739-.177.178.015.352.03.476-.01.496-.159.894-.617 1.028-1.112.194-.715-.046-1.488-.438-2.12-.517-.83-1.243-1.642-2.128-2.152a1.897 1.897 0 0 0-.176-.09v-.007Zm41.964 11.71c.252-.156.594-.116.926-.076.407.048.801.094 1.002-.222.242-.379-.156-.89-.596-.977-.31-.06-.624.005-.939.07-.13.027-.262.055-.393.073-.445.064-.986-.035-1.175-.44-.146-.313.053-.725.252-1.135.281-.579.56-1.154-.142-1.44-.341-.14-.74-.038-1.055.153-1.064.645-1.258 1.961-1.449 3.253v.001c-.057.39-.114.776-.195 1.142-.158.718-.543 1.499-1.259 1.662-.78.175-1.361-.43-1.959-1.054-.534-.557-1.08-1.128-1.794-1.167a3.127 3.127 0 0 0-.432.018c-.326.029-.65.057-.893-.143-.517-.428-.026-1.246.462-1.706l.682-.644.68-.642c2.279-2.15 4.826-4.424 7.951-4.642 1.378-.097 2.752.227 4.075.62a37.43 37.43 0 0 1 3.013 1.037c.39.154.854.575.583.894a.47.47 0 0 1-.339.159l-2.67.105c.648 2.826 3.81 1.111 5.629.125.324-.176.606-.329.823-.429 3.211-1.474 6.143-1.217 9.526-.759.35.048.81.03.922-.304.103-.306-.167-.52-.446-.74a2.296 2.296 0 0 1-.372-.338c-.612-.758.57-1.376 1.212-1.264.852.15 1.112 1.024 1.277 1.755.15.653.572 1.435 1.235 1.336.575-.086.804-.758.994-1.317l.018-.055c1.678-4.924 8.525-5.597 12.782-4.18a3.57 3.57 0 0 1 1.07.56 5.229 5.229 0 0 0 2.754 1.109c2.156.204 5.454.813 7.661 1.22 1.119.207 1.957.362 2.226.387 1.69.154 3.132-.1 4.698-.377.292-.051.588-.103.891-.154 1.537-.258 3.116.058 4.67.368.728.146 1.451.29 2.162.374.773.091 1.545.168 2.316.244 1.651.164 3.298.327 4.943.632l.072.013c.658.122 1.332.247 1.989.123.26-.048.509-.133.759-.219.174-.06.347-.119.524-.166 1.347-.354 2.778-.013 4.063.42.975.329 1.955.643 2.947.916.173.048.331.086.472.12.755.184 1.032.25.468.985-.187.245-.233.674-.103.953.058.126.131.243.205.36.088.141.176.281.237.435a1.42 1.42 0 0 1-.385 1.56c-.318.273-.902.23-1.493.188-.887-.065-1.79-.131-1.831.87-.019.486.284.924.621 1.274.088.09.179.18.271.268.26.251.52.503.695.817.449.803.24 1.807.051 2.699a.685.685 0 0 1-.064.187c-.196.38-.561.27-.841.132-2.196-1.081-3.462-3.773-2.894-6.155.288-1.215-.63-1.195-1.528-1.087-1.439.172-1.653.499-2.308 1.497l-.159.242c-.363.548-1.114.697-1.765.614a7.113 7.113 0 0 1-.961-.215c-.318-.086-.635-.173-.961-.214a3.597 3.597 0 0 0-2.861.913c-.733.676-1.123 1.928-.432 2.648.462.48 1.164.513 1.855.544.202.01.403.019.597.04 1.691.178 3.198 1.498 3.603 3.147.405 1.65-.323 3.518-1.741 4.457a9.934 9.934 0 0 1-.489.302h-.001c-.664.395-1.35.803-1.44 1.532-.104.857.694 1.473 1.399 2.017h.002l.199.156c.744.583 1.343 1.804.588 2.372-.746.562-1.724-.295-2.256-1.06l-.797-1.147-.788-1.134c-.143-.207-.33-.436-.581-.431-.199.004-.365.152-.526.296-.188.168-.369.33-.586.243-.185-.074-.241-.283-.295-.486a2.534 2.534 0 0 0-.048-.168c-.594-1.774-3.762.806-2.311 2.175.207.197.47.31.735.424.183.079.366.158.533.265.514.33.811.888 1.102 1.434.051.096.102.193.154.287.234.425.5.833.766 1.24.376.578.752 1.154 1.037 1.78.487 1.068.674 2.37.086 3.385-.456.786-1.256 1.22-2.03 1.64l-.22.12c-1.03.565-1.734 1.21-2.557 2.046-.242.247-.592.513-.896.35-.155-.082-.237-.252-.313-.41l-.011-.023c-.662-1.403-2.549-1.03-2.67.545-.068.888.454 1.709 1.033 2.382.12.14.245.279.37.418.474.527.951 1.056 1.221 1.704a3.13 3.13 0 0 1-.257 2.85c-.511.79-1.541 1.334-2.409.971-.594-.248-.953-.828-1.308-1.402-.385-.622-.767-1.239-1.441-1.422a3.083 3.083 0 0 0-.53-.077c-.343-.03-.681-.059-.918-.293-.194-.193-.259-.474-.324-.752-.073-.311-.144-.62-.396-.795-.341-.238-.634-.29-.895-.337-.409-.073-.74-.132-1.057-.865-.658-1.523-1.728-3.317-3.258-4.105-.422-.218-.922-.326-1.38-.194-.385.11-.704.379-1.01.636-.375.319-.759.63-1.143.942h-.001c-.711.578-1.425 1.157-2.083 1.781-.821.775-1.433 1.695-1.616 2.822-.085.526-.008 1.06.068 1.592.095.657.189 1.31-.024 1.943-.189.557-.706 1.05-1.292 1.008-.455-.033-.841-.374-1.061-.775-1.232-2.24-1.827-5.018-2.265-7.503a7.827 7.827 0 0 1-.036-.242v-.001c-.066-.467-.156-1.113-.567-1.298-.231-.105-.518-.048-.819.01-.325.064-.667.131-.972 0-.464-.197-.771-.614-1.075-1.027h-.001v-.001c-.084-.114-.167-.227-.254-.336a5.066 5.066 0 0 0-3.46-1.862 10.45 10.45 0 0 0-1.273-.009c-.804.028-1.603.055-2.328-.266-.359-.158-.677-.389-.995-.62-.39-.282-.78-.565-1.246-.714-.342-.11-.683-.181-1.021-.252-.587-.123-1.164-.245-1.719-.558-.135-.076-.278-.18-.426-.286-.575-.417-1.222-.885-1.749.013-.315.535-.176 1.233.136 1.767a3.142 3.142 0 0 0 2.523 1.522c.379.017.758-.036 1.136-.088.499-.07.996-.138 1.488-.047 1.146.212 2.025 1.396 1.895 2.554-.093.827-.614 1.54-1.167 2.166a16.825 16.825 0 0 1-6.242 4.446c-.454.185-.947.354-1.427.253-.812-.17-1.27-1.015-1.617-1.77-.248-.538-.49-1.08-.733-1.623v-.002c-.804-1.802-1.61-3.61-2.644-5.286a19.091 19.091 0 0 1-.268-.458c-.673-1.169-1.954-3.395-3.102-3.132-.561.127-.495.948-.284 1.485a41.996 41.996 0 0 0 6.861 11.488c.227.27.467.546.782.707.594.304 1.283.139 1.95-.02.123-.03.246-.06.367-.086.773-.167 1.781-.073 2.074.663.134.336.07.717-.022 1.065-.585 2.186-2.19 3.884-3.766 5.55-.286.302-.572.604-.85.908-1.81 1.972-3.482 4.51-2.96 7.136.083.423.223.843.363 1.263.29.87.578 1.734.354 2.6-.26 1.011-1.141 1.725-2.003 2.424-.999.81-1.973 1.6-1.932 2.808.007.228.054.455.1.681.072.343.143.684.071 1.023-.079.377-.323.696-.561.997l-2.04 2.605-.003.004c-1.941 2.476-4.331 5.183-7.477 5.183-.365 0-.757-.048-1.034-.288-.234-.203-.348-.506-.452-.8l-1.823-5.08-1.841-5.13c-.329-.914-.66-1.851-.641-2.82.014-.774.249-1.513.484-2.254.135-.425.27-.85.363-1.283.489-2.243-.204-4.71-1.791-6.373-.08-.083-.164-.167-.247-.25-.406-.407-.82-.822-.953-1.37-.125-.511.016-1.052.155-1.585.169-.648.335-1.284.014-1.84-.209-.363-.585-.592-.944-.807-1.217-.725-2.494-1.469-3.907-1.576-1.231-.093-2.387.28-3.542.654-1.046.337-2.09.675-3.191.666-1.979-.013-2.848-1.275-3.779-2.626-.33-.48-.668-.97-1.066-1.42-.194-.22-.41-.428-.626-.636-.55-.532-1.1-1.064-1.3-1.787-.203-.741.029-1.402.264-2.072.104-.295.208-.591.276-.897.155-.7.136-1.398.116-2.099-.013-.46-.025-.922.011-1.386.158-1.97 1.383-3.283 2.658-4.65l.072-.078c1.345-1.441 2.696-2.89 4.268-4.083 2.967-2.252 6.418-2.8 10.07-2.745 1.214.02 1.323.5 1.47 1.15.075.335.16.715.412 1.1.497.764 1.45 1.233 2.243 1.616.986.475 2.144.955 3.13.482.184-.089.351-.206.519-.324.159-.112.318-.223.491-.31.906-.449 1.932-.116 2.925.205.22.071.44.142.656.204a7.84 7.84 0 0 0 4.2.022c.718-.198 1.433-.517 1.91-1.087.478-.57.659-1.44.271-2.076-.49-.808-1.602-.927-2.544-.885l-.12.006c-.913.041-1.911.087-2.594-.505-.363-.316-.564-.756-.767-1.199-.129-.28-.258-.562-.428-.813-.44-.65-1.539-1.017-1.944-.344-.15.25-.146.561-.142.867.005.36.01.715-.239.952-.86.82-1.767-.927-2.03-1.522-.84-1.892-2.412-3.45-4.357-4.188a.573.573 0 0 0-.498.037c-.398.242-.152.812.167 1.112l.063.058c.294.273.63.584.552.965-.152.742-1.07.438-1.466.135-.14-.108-.267-.23-.395-.35a4.236 4.236 0 0 0-.492-.42c-.828-.578-1.984-.498-2.886-.043-1.038.522-1.77 1.404-2.503 2.284-.734.883-1.468 1.766-2.507 2.284-2.17 1.08-5.558-1.094-3.87-3.555a2.413 2.413 0 0 1 2.155-1.017c.195.018.387.059.579.1.214.046.429.092.648.105.413.024.88-.108 1.078-.474.226-.42.007-.868-.215-1.322a4.11 4.11 0 0 1-.263-.62c-.184-.626.022-1.315.394-1.852 1.814-2.622 6.399-4.513 9.51-3.927 1.355.255 2.988.42 3.893-.623.113-.13.212-.278.31-.424.204-.303.406-.604.731-.75.09-.04.185-.066.28-.093a1.88 1.88 0 0 0 .28-.094c.455-.21.655-.84.409-1.276a.477.477 0 0 1 .079-.057l-.009.006Zm-105.005-2.008c.352-.38 1.03-.568 1.54-.693.235-.058.473-.038.712-.018.283.024.568.048.85-.057.204-.076.382-.212.556-.345l.007-.005.623-.48h.001l.624-.48c-.178-.145-.436-.136-.656-.072-.093.027-.184.063-.275.098a2.279 2.279 0 0 1-.374.124c-.168.033-.34.03-.509.026-.048 0-.101-.004-.138-.037-.042-.038-.047-.1-.049-.154-.013-.27-.017-.568.15-.782.218-.28.638-.297.982-.204.12.032.239.075.357.117.218.079.434.157.664.171.28.018.99-.154 1.045-.504.034-.202-.232-.46-.43-.652a2.393 2.393 0 0 1-.162-.165c.443-.514 1.165-.6 1.824-.678.164-.02.323-.038.474-.063.43-.073.857-.15 1.285-.229.654-.12 1.308-.239 1.966-.337a71.68 71.68 0 0 1 3.98-.489c.19-.018.448-.063.74-.115.977-.173 2.34-.414 2.852.076.13.125.228.278.325.43v.001c.046.072.092.144.142.214.59.82 1.602 1.054 2.562.906.55-.084 1.075-.206 1.596-.328.85-.199 1.692-.395 2.623-.42 2.91-.077 5.545.304 8.213 1.468.372.163.843.227 1.151-.035a1.41 1.41 0 0 0 .199-.224c.098-.127.196-.254.345-.307a.774.774 0 0 1 .284-.03c.368.002.738-.013 1.108-.027.81-.032 1.623-.063 2.422.077.224.04.45.099.676.159.625.164 1.256.33 1.88.07.792-.33 1.29-1.18 1.503-1.974l.003-.012c.026-.091.053-.189.123-.248.18-.154 1.001-.163 1.206-.11.218.057.416.262.383.484-.058.395.08.58.247.805.11.148.234.313.32.567l.042.126c.092.282.181.555.403.759-.196.052-.368.207-.54.363-.235.212-.47.425-.765.374a2.942 2.942 0 0 1-.407-.106c-.342-.109-.461-.146-.51.535-.034.442-.417.773-.798.995-.248.145-.738.331-1.335.558-2.254.856-6.03 2.29-4.033 4.265.715.706 2 1.107 2.982 1.188.063.005.15.005.247.004.464-.004 1.181-.01.764.575-.256.357-.372.823-.264 1.248.107.427.453.795.882.885.962.2 1.363-.883 1.26-1.65.444-.576 1.066-.748 1.677-.916.469-.13.931-.257 1.3-.564a4.123 4.123 0 0 0-.196-.746c-.145-.437-.281-.848-.107-1.268l.047-.117v-.001c.135-.336.285-.71.637-.954l.252-.027c.134-.015.27-.03.402-.043l1.06-1.061c1.476-.113 1.77-.053 2.814.572.11.135.095.292.08.452a1.22 1.22 0 0 0-.008.24c.014.135.011.272.008.404l-.003.165c.449.528.898.58 1.536.278.159-.075.313-.17.468-.267.432-.267.878-.544 1.485-.416v2.413c.396.394.559.823.686 1.287.19.142.404.123.619.105.12-.01.24-.02.357-.003l.08.07c.273.236.544.47.338.922-.288.557-.8.886-1.315 1.217a8.81 8.81 0 0 0-.605.412c-.266.205-.695.412-1.182.355-.429-.05-.864-.04-1.299-.03-.353.01-.707.018-1.058-.006-.713-.046-1.372.148-2.03.342-.37.108-.74.217-1.118.284-.27.048-.614.312-.436.862.092.282 1.095.035 1.765-.13.268-.065.482-.118.564-.118.86 0 .302.57-.085.964-.15.153-.274.28-.28.337-.044.407.431.666.836.724.139.02.306.048.357.176.046.112-.03.244-.132.31a.902.902 0 0 1-.232.1 2.075 2.075 0 0 0-.107.037c-.282.112-.495.345-.7.57-.205.224-.425.455-.711.552-.634.218-.68-.178-.727-.568-.04-.343-.08-.682-.517-.598a3.972 3.972 0 0 0-2.471 1.604c-.632.905-.965 1.147-2.017 1.501-1.244.422-2.06 1.507-2.848 2.555-.303.404-.602.802-.92 1.154-.741.822-1.645 1.393-2.555 1.968a21.85 21.85 0 0 0-1.418.947c-.253.187-.51.38-.691.638-.324.46-.216 1.126-.126 1.674v.001l.029.183c.016.102.053.254.097.431.138.564.339 1.384.116 1.669-.257.328-.55.563-1.006.436-.484-.495-.476-1.104-.468-1.715.002-.145.004-.29 0-.434-.663-.883-1.53-1.587-2.666-1.69a.92.92 0 0 0-.372.024c-.212.068-.351.25-.49.431a1.674 1.674 0 0 1-1.879.658c-.142-.046-.212-.157-.282-.267-.106-.166-.21-.33-.556-.274-.133.021-.26.068-.387.114a2.49 2.49 0 0 1-.328.104c-1.107.233-2.397.726-3.062 1.748-1.356 2.082-2.624 7.572 1.741 6.966.41-.057.817-.202 1.116-.484.25-.235.407-.542.564-.85.086-.17.173-.34.275-.497.288-.447.836-.83 1.325-.62.34.147.52.545.515.917-.002.372-.15.726-.293 1.07l-.204.484c-.229.545-.458 1.088-.685 1.633l.924.045.925.046c.295.015.61.035.845.215.286.218.376.617.341.975-.023.234-.09.46-.157.686a6.46 6.46 0 0 0-.1.362 3.62 3.62 0 0 0 .8 3.203c-.241.229-.629.244-.932.108-.304-.137-.533-.397-.718-.672-.214-.318-.38-.663-.547-1.009-.123-.255-.246-.51-.389-.754-.332-.577-.812-1.12-1.457-1.29a4.762 4.762 0 0 0-.737-.122c-.437-.047-.845-.092-1.305-.41a11.096 11.096 0 0 1-.415-.307c-.359-.273-.717-.545-1.14-.695-.434-.154-.899-.164-1.363-.175H.007c-.133-.003-.266-.006-.398-.012-1.76-.086-3.833-.834-4.942-2.27-.324-.42-.395-.876-.469-1.355a8.787 8.787 0 0 0-.083-.48c-.117-.555-.375-1.09-.64-1.594a22.67 22.67 0 0 0-.765-1.304c-.404-.656-.808-1.312-1.107-2.026a10.17 10.17 0 0 1-.325-.944c-.163-.529-.323-1.05-.641-1.546-.128-.196-.293-.4-.526-.431a.949.949 0 0 0-.262.017c-.127.02-.253.039-.366-.017-.163-.083-.204-.276-.244-.464a2.168 2.168 0 0 0-.04-.168c-.11-.379-.394-.51-.69-.646a2.124 2.124 0 0 1-.452-.254c-.422-.335-.702-.867-.878-1.365-.372-1.052-.35-2.216-.322-3.317.007-.301.027-.607.135-.89.111-.286.312-.527.51-.763l.003-.004c.239-.287.494-.573.752-.863.737-.828 1.5-1.684 1.981-2.644.045-.088.085-.178.125-.269.098-.22.197-.44.35-.622.075-.09.161-.169.247-.247.076-.07.152-.14.22-.218.405-.457.219-1.1.061-1.641-.021-.074-.042-.145-.06-.214a6.432 6.432 0 0 1-.19-2.292c.018-.177.042-.354.067-.531.063-.45.126-.9.067-1.346-.087-.678-.472-.964-.881-1.269-.231-.172-.47-.35-.668-.607-.335-.437-1.418-.535-2.289-.615-.366-.033-.694-.063-.914-.113-.955-.218-1.662-.168-2.531.253-.227.11-.544.222-.801.167-.11-.024-.203-.1-.297-.176-.123-.1-.245-.198-.397-.178-.175.023-.246.191-.32.365-.04.096-.08.193-.14.269-.123.158-.33.222-.524.277-.194.055-.411.132-.64.212-.677.24-1.453.514-2.036.35-.77-.22-1.673-.78-1.9-1.588-.103-.37-.008-.651.194-.867Zm47.936 86.633-.026-.013c-1.693-.878-2.974-2.302-3.627-4.109-.056-.152-.106-.313-.093-.474.011-.149.076-.286.141-.423.024-.049.047-.099.068-.149.297-.715.064-1.543-.29-2.232a23.221 23.221 0 0 0-.374-.687c-.387-.694-.731-1.31-.877-2.174a60.198 60.198 0 0 1-.76-12.349l.006-.13c.03-.713.06-1.433-.095-2.128-.268-1.188-1.107-1.735-2.032-2.337l-.332-.219c-1.154-.768-2.28-1.576-3.108-2.707-1.273-1.737-2.274-3.599-3.238-5.52-.134-.27-.273-.558-.24-.855.022-.194.115-.374.207-.552.115-.221.228-.44.202-.683-.016-.149-.086-.284-.155-.42a2.483 2.483 0 0 1-.091-.187c-.233-.54-.108-1.182.187-1.693.318-.549.728-1.024 1.14-1.501.495-.574.993-1.15 1.336-1.862.192-.396.273-.863.128-1.277a2.505 2.505 0 0 0-.161-.341 2.428 2.428 0 0 1-.167-.356c-.152-.445-.027-.947.22-1.348.546-.887 1.567-1.635 2.474-2.106a.806.806 0 0 1 .332-.112c.355-.013.562.385.694.715.132.33.387.715.737.645.268-.054.362-.318.461-.593.074-.204.15-.415.3-.552.286-.257.852-.039 1.292.13.144.056.275.106.377.132a9.75 9.75 0 0 0 2.461.34c.537-.043.832.278 1.14.613.136.148.275.3.438.423.36.27.775.446 1.191.622.352.148.703.297 1.021.503.334.215.63.488.925.76.433.398.864.796 1.409 1.005.209.08.427.13.645.179.17.038.34.076.506.13 1.118.358 1.582 1.276 1.739 2.297.13.848.678 1.567 1.45 1.94l.041.02.04.02c.292.149.497.255.664.342.442.229.614.318 1.382.696.735.363 1.48.427 2.224.49.636.055 1.273.11 1.905.35.977.377 1.819.975 2.663 1.575l.183.13.005.003c.143.102.29.207.387.358.645 1.017-.262 2.243-.873 3.069l-.118.16c-.761 1.039-1.331 2.355-1.53 3.632-.08.519-.11 1.08-.14 1.65-.083 1.549-.17 3.176-1.286 4.273-.603.594-1.42.787-2.217.976-.143.033-.284.067-.424.102-1.138.291-1.433.835-1.693 1.98-.359 1.588-.845 3.46-1.77 4.826-.416.615-1.03 1.132-1.76 1.266-.119.022-.297-.005-.488-.034-.33-.05-.699-.105-.855.078-.266.313.044.567.36.827.178.146.357.294.437.454.268.546.057 1.279-.463 1.596-.217.133-.48.192-.743.251-.348.078-.695.157-.936.405-.166.17-.233.427-.299.682-.097.374-.193.745-.601.834-.143.032-.294.007-.444-.018-.2-.033-.395-.066-.562.036-.304.185-.24.652-.055.955.046.077.098.151.15.226.155.223.31.447.32.714.013.311-.183.582-.369.84l-.057.08c-.2.282-.377.643-.234.958.097.213.311.332.521.45.049.027.097.054.144.083.749.448.274 2.103-.042 3.207-.083.289-.155.54-.191.722-.022.112-.046.229-.117.319-.16.204-.478.18-.715.066l-.005.006Zm147.414-31.584a.334.334 0 0 0 .125-.062c.172-.136.201-.442.075-.64-.143-.227-.416-.365-.678-.498a3.26 3.26 0 0 1-.372-.209c-.367-.253-.711-.541-.944-.929-.15-.25-.246-.524-.343-.8-.078-.221-.156-.443-.262-.653-.408-.796-1.193-1.338-2.012-1.701-.793-.351-1.617-.637-2.441-.922-.632-.22-1.265-.438-1.882-.687-.746-.3-1.305 1.609-1.01 2.07.111.17.299.26.486.35.068.032.136.064.2.1.465.262.764.79.753 1.323l-.005.133c-.011.219-.023.447.131.59.093.085.222.113.348.14l.065.013c.314.071.596.202.872.329.555.256 1.082.5 1.774.217.119-.048.234-.11.35-.17.251-.133.5-.265.779-.268.487-.006.865.377 1.215.732l.042.042.079.08a5.575 5.575 0 0 0 2.331 1.385.62.62 0 0 0 .324.035Zm-18.181 15.682c.79-.152 1.613-.112 2.249.268l.009-.004c.372.222.68.563.88 1.054l.015.036.017.045c.096.246.2.515.446.588.248.074.489-.102.704-.26l.047-.035c.226-.165.57-.288.759-.081.125.136.102.324.079.517-.015.12-.03.24-.011.352.037.208.165.37.295.533.122.154.245.309.293.504.046.189.01.382-.026.575-.048.254-.096.509.046.757.193.341.64.422 1.03.469.177.021.348.044.515.067h.003c.934.128 1.738.238 2.656-.182.973-.444 1.946-.931 2.705-1.703 1.288-1.312 2.556-2.64 3.733-4.055l.003-.003c.092-.112.187-.227.226-.367.028-.1.026-.204.024-.308a1.698 1.698 0 0 1 .005-.202c.024-.248.152-.463.282-.68.095-.159.191-.32.246-.494.062-.193.07-.4.079-.604v-.001l.002-.052c.026-.657.052-1.317.005-1.973-.052-.717-.397-.95-.761-1.194-.269-.181-.549-.37-.729-.765a9.288 9.288 0 0 1-.215-.526c-.231-.596-.484-1.251-.992-1.572-.041-.026-.085-.05-.129-.075-.149-.083-.299-.167-.372-.317-.054-.11-.054-.234-.053-.357v-.037c.009-.653-1.255-5.577-2.052-4.05-.215.412-.339.843-.463 1.275-.086.298-.171.596-.287.89-.905 2.293-4.365.283-3.592-1.82.101-.279.213-.637-.011-.833-.104-.09-.249-.11-.386-.121-1.096-.09-2.465.066-3.253.909a6.701 6.701 0 0 0-.507.641c-.524.722-.947 1.306-1.813.307-.196-.226-.451-.442-.75-.433-.251.009-.467.176-.654.345-.283.258-.503.577-.719.892-.201.292-.399.58-.642.81-.129.124-.326.179-.516.232-.199.055-.391.109-.496.237a.586.586 0 0 0-.094.236l-.009.039c-.17.671-.762 1.155-1.385 1.455-.565.271-1.151.45-1.738.629-.364.11-.729.221-1.088.355-2.441.907-2.708 2.793-2.769 5.216-.012.451.029.883.07 1.31.073.765.144 1.513-.094 2.322a3.305 3.305 0 0 1-.109.288c-.164.399-.374.91.051 1.154.264.152.595.106.894.049 1.422-.27 2.801-.7 4.181-1.128 1.374-.426 2.748-.853 4.166-1.124ZM26.648 19.753v-.001l.134-.136v-.002a.438.438 0 0 1 .284-.117c.485-.019.917.149 1.342.314.41.159.815.316 1.253.3a.442.442 0 0 1 .399.216c.059.102.12.202.18.3.334.551.657 1.082.647 1.774a.43.43 0 0 1-.16.328 1.396 1.396 0 0 0-.211.231c-.151.192-.308.392-.623.376-.291-.015-.5.127-.699.264-.051.035-.102.07-.153.102a.437.437 0 0 0-.205.372v.04c0 .166.092.318.242.393l.694.348c.495.25 1 .503 1.55.777a.445.445 0 0 0 .22.04c.1-.008.214.008.333.025.129.018.263.037.393.027a.436.436 0 0 0 .391-.55 1.136 1.136 0 0 0-.145-.286.44.44 0 0 1 .383-.676l.18.011c.06.005.12.01.179.011a.44.44 0 0 0 .407-.636l-.099-.198a.439.439 0 0 1 .4-.636h.012a.439.439 0 0 0 .446-.44v-.714a.442.442 0 0 0-.13-.31l-.917-.918a.434.434 0 0 1-.126-.255 2.495 2.495 0 0 1-.01-.27c-.002-.316-.003-.638-.4-.872a.428.428 0 0 0-.22-.06h-.792a.437.437 0 0 1-.248-.077 3.316 3.316 0 0 0-.466-.264c-.218-.109-.414-.206-.534-.365a.419.419 0 0 0-.233-.152c-.628-.163-1.241-.001-1.824.153-.615.162-1.196.315-1.724.069a.443.443 0 0 0-.48.075c-.115.1-.222.197-.322.286l-.003.002-.258.23a.44.44 0 0 0-.073.574l.109.163.001.001.068.102.04.06a.44.44 0 0 0 .673.068l.095-.097Zm118.244 52.045c.077 0 .15-.053.216-.222.031-.082.041-.17.051-.257.007-.063.014-.125.028-.186.042-.172.149-.278.258-.385.077-.075.154-.151.209-.25.065-.117.091-.238.117-.358.033-.147.065-.295.169-.433.183-.24.482-.396.757-.502.091-.035.184-.067.277-.1.362-.125.727-.253.985-.527.091-.099.165-.213.239-.327.103-.16.206-.318.357-.433.709-.539 1.42.282 1.541.945.063.35-.075.646-.215.946-.084.18-.169.36-.21.555-.064.295.086.589.23.87.153.297.298.581.177.84a.89.89 0 0 1-.224.272c-.096.09-.192.178-.24.31-.045.12-.051.237-.057.353-.009.17-.018.337-.146.507a2.24 2.24 0 0 1-.288.302c-.132.122-.263.243-.359.415a1.98 1.98 0 0 0-.119.288c-.073.207-.147.415-.35.536-.145.086-.323.094-.495.099-.748.022-1.514.013-2.245-.174-.92-.236-1.197-.584-1.558-1.42-.163-.374-.518-2.043.38-1.941.082.01.168.075.252.14.089.07.177.137.259.14l.004-.003Zm-46.435 12.84c-.321.103-.651.297-.75.62-.069.225-.013.463.04.692l.006.022c.178.777.2 1.552-.227 2.258-.084.14-.182.272-.28.404-.159.212-.316.424-.415.668-.135.328-.154.696-.117 1.05.044.438.18.883.48 1.208a1.48 1.48 0 0 0 1.55.39c.662-.235.855-.832 1.047-1.43.028-.085.055-.17.084-.254.141-.414.279-.83.418-1.245l.001-.003v-.002c.156-.468.312-.936.472-1.402.072-.206.146-.41.221-.615l.001-.003c.27-.74.539-1.48.648-2.264l.011-.08.031-.208c.052-.341.105-.685.088-1.03-.016-.33-.093-1.07-.606-.755-.128.078-.218.204-.306.327l-.026.036c-.636.87-1.374 1.292-2.37 1.616ZM12.05 17.995c.362.426.862.672 1.364.918.102.05.205.1.306.152a.73.73 0 0 0 .572.037c.32-.112.66-.156 1.005-.2.33-.044.663-.087.988-.191a.73.73 0 0 1 .948.7v.473a.735.735 0 0 1-.477.687c-.23.086-.483.128-.74.172-.297.05-.6.1-.878.22-.286.12-.744.16-1.103-.12-.326-.253-.753-.242-1.076-.063-.494.272-1.004.238-1.511.205-.253-.016-.505-.033-.754-.012-.084.007-.176-.088-.28-.2a.739.739 0 0 1-.196-.5v-.317a.733.733 0 0 0-.735-.732h-.024c-.784.002-1.024-1.06-.317-1.396l.048-.023c.119-.056.239-.113.357-.175a.746.746 0 0 1 .663-.011c.337.16.704.144 1.078.128l.19-.007a.725.725 0 0 1 .574.25l-.002.005Zm129.254 58.288v-.56l-.002-.003a.81.81 0 0 0-.104-.4c-.648-1.153-1.387-2.213-2.154-3.312l-.485-.697a.82.82 0 0 0-.702-.352.871.871 0 0 1-.315-.06c-.77-.281-1.45.603-.955 1.257l.021.027.021.026c.587.723 1.073 1.513 1.559 2.303.482.784.964 1.568 1.544 2.287a.821.821 0 0 0 .566.299c.104.01.203.01.297 0a.816.816 0 0 0 .709-.815Z" clip-rule="evenodd"/></g><path fill="url(#h)" fill-opacity=".3" d="M73.663 112.093c27.413 0 49.635-22.222 49.635-49.636 0-27.413-22.222-49.635-49.635-49.635-27.413 0-49.635 22.222-49.635 49.636 0 27.413 22.222 49.635 49.635 49.635Z"/><path fill="url(#i)" fill-rule="evenodd" d="M43.922 4.077a6.863 6.863 0 0 1-2.278 9.434c-26.968 16.48-35.472 51.7-18.993 78.669 16.479 26.969 51.7 35.472 78.669 18.993a6.863 6.863 0 0 1 9.434 2.278 6.863 6.863 0 0 1-2.277 9.435c-33.438 20.431-77.107 9.888-97.539-23.549C-9.493 65.9 1.05 22.23 34.488 1.799a6.863 6.863 0 0 1 9.434 2.278Z" clip-rule="evenodd"/><defs><radialGradient id="a" cx="0" cy="0" r="1" gradientTransform="rotate(144.08 39.377 62.108) scale(94.4415 46.4123)" gradientUnits="userSpaceOnUse"><stop stop-color="#2E86FE"/><stop offset="1" stop-color="#2E86FE" stop-opacity="0"/></radialGradient><radialGradient id="b" cx="0" cy="0" r="1" gradientTransform="matrix(-27.55963 -78.54848 52.32967 -18.36046 73.734 138.941)" gradientUnits="userSpaceOnUse"><stop stop-color="#12AFFF"/><stop offset="1" stop-color="#12AFFF" stop-opacity=".18"/></radialGradient><radialGradient id="d" cx="0" cy="0" r="1" gradientTransform="rotate(-63.334 102.6 -7.62) scale(60.5355 51.3036)" gradientUnits="userSpaceOnUse"><stop stop-color="#14AEFF"/><stop offset="1" stop-color="#2694FF"/><stop offset="1" stop-color="#2E87FF"/></radialGradient><radialGradient id="g" cx="0" cy="0" r="1" gradientTransform="rotate(44.56 -33.806 120.282) scale(121.625 99.5271)" gradientUnits="userSpaceOnUse"><stop stop-color="#F6FCFF"/><stop offset="1" stop-color="#C0E2FF"/></radialGradient><radialGradient id="h" cx="0" cy="0" r="1" gradientTransform="matrix(20.75876 38.72597 -39.19714 21.01133 48.915 23.731)" gradientUnits="userSpaceOnUse"><stop stop-color="#63F0EB"/><stop offset="1" stop-color="#63F0EB" stop-opacity="0"/></radialGradient><linearGradient id="c" x1="123.298" x2="24.028" y1="56.257" y2="56.257" gradientUnits="userSpaceOnUse"><stop stop-color="#2E86FE"/><stop offset="1" stop-color="#12AFFF"/></linearGradient><linearGradient id="e" x1="123.298" x2="21.862" y1="112.093" y2="109.828" gradientUnits="userSpaceOnUse"><stop stop-color="#2E86FE"/><stop offset="1" stop-color="#11AFFF"/></linearGradient><linearGradient id="i" x1="60.538" x2="22.25" y1="117.433" y2="-18.548" gradientUnits="userSpaceOnUse"><stop stop-color="#13B8FF" stop-opacity="0"/><stop offset=".5" stop-color="#13B8FF"/><stop offset="1" stop-color="#4FD8D5"/></linearGradient></defs></svg>