<svg xmlns="http://www.w3.org/2000/svg" fill="none" viewBox="0 0 160 143"><path fill="#B9CCF0" d="m118.342 133.5.057 9.241-117.84-14.47-.059-9.238L118.342 133.5Z"/><path fill="#849ACB" d="m118.342 133.501 41.101-22.672.057 9.241-41.101 22.672-.057-9.241Z"/><path fill="url(#a)" d="m.5 119.034 41.101-22.676 117.843 14.47-41.102 22.673L.5 119.034Z"/><path fill="#B9CCF0" d="m117.837 121.959.038 5.96-103.112-12.66-.038-5.96 103.112 12.66Z"/><path fill="#849ACB" d="m117.838 121.958 27.399-15.116.038 5.963-27.4 15.113-.037-5.96Z"/><path fill="url(#b)" d="m14.725 109.297 27.4-15.116 103.112 12.66-27.4 15.116-103.112-12.66Z"/><path fill="url(#c)" d="m125.45 96.379.025 16.348c0 .505-.401 1.017-1.248 1.506-3.109 1.791-11.048 2.575-17.736 1.757-4.862-.596-7.72-1.879-7.722-3.222l-.026-16.349c0 1.343 2.861 2.626 7.723 3.222 6.688.822 14.627.034 17.735-1.757.847-.49 1.249-1 1.249-1.505Z"/><path fill="#A1B2DA" d="M117.725 93.155c6.687.822 9.596 3 6.488 4.787-3.109 1.792-11.123 2.576-17.81 1.757-6.688-.819-9.522-2.997-6.414-4.788 3.109-1.79 11.048-2.575 17.732-1.756h.004Z"/><path fill="url(#d)" d="m93.342 91.987.025 16.349c0 .505-.402 1.016-1.249 1.505-3.108 1.792-11.047 2.576-17.735 1.757-4.862-.596-7.72-1.879-7.723-3.221l-.025-16.35c0 1.343 2.861 2.626 7.723 3.222 6.688.822 14.627.035 17.735-1.756.847-.49 1.249-1.001 1.249-1.506Z"/><path fill="#A1B2DA" d="M85.62 88.763c6.687.822 9.604 2.961 6.496 4.75-3.109 1.79-11.048 2.575-17.736 1.756-6.687-.819-9.605-2.958-6.496-4.75 3.108-1.79 11.048-2.575 17.732-1.756h.003Z"/><path fill="url(#e)" d="m61.124 89.364.025 16.348c0 .505-.401 1.017-1.248 1.506-3.109 1.791-11.048 2.575-17.736 1.757-4.862-.596-7.72-1.879-7.722-3.222l-.026-16.349c0 1.343 2.861 2.626 7.723 3.222 6.688.822 14.627.034 17.736-1.757.846-.49 1.248-1 1.248-1.505Z"/><path fill="#A1B2DA" d="M53.401 86.14c6.688.821 9.583 3.005 6.475 4.793-3.109 1.79-11.048 2.575-17.736 1.756-6.687-.818-9.583-3.002-6.474-4.793 3.109-1.791 11.048-2.575 17.732-1.757h.003Z"/><path fill="url(#f)" d="m56.842 25.254.098 63.478c0 .342-.273.694-.85 1.026-2.121 1.22-7.535 1.757-12.096 1.198-3.316-.407-5.264-1.28-5.267-2.195l-.097-63.48c0 .917 1.951 1.792 5.267 2.197 4.558.558 9.975.025 12.095-1.199.577-.332.85-.68.85-1.025Z"/><path fill="url(#g)" d="m89.107 28.118.097 63.48c0 .344-.272.692-.85 1.025-2.12 1.22-7.534 1.756-12.092 1.198-3.316-.408-5.267-1.283-5.267-2.199l-.097-63.478c0 .915 1.951 1.79 5.267 2.198 4.558.559 9.972.026 12.092-1.198.577-.332.853-.684.85-1.026Z"/><path fill="url(#h)" d="m121.452 32.393-.054 63.654c0 .34-.288.684-.9 1.01-2.177 1.164-7.613 1.65-12.145 1.089-3.263-.405-5.167-1.245-5.164-2.117l.054-63.655c0 .872 18.209.358 18.209.02Z"/><path fill="#ECF7FF" d="m120.651 47.852.066 10.364-106.99-13.137-.065-10.364L120.65 47.852Z"/><path fill="#849ACB" d="m120.651 47.851 27.403-15.116.066 10.364-27.403 15.116-.066-10.364Z"/><path fill="#D9E6FC" d="m13.774 34.763 27.403-15.117L94.51.365l-27.4 15.116-53.335 19.282Z"/><path fill="url(#i)" fill-opacity=".15" d="m13.774 34.763 27.403-15.117L94.51.365l-27.4 15.116-53.335 19.282Z"/><path fill="#BFD2F2" d="M66.897 15.48 94.297.366l53.754 32.377-27.41 15.123-53.744-32.384Z"/><path fill="#CFE3FC" d="m67.109 15.48 53.552 32.386L13.774 34.762 67.11 15.48Z"/><path fill="url(#j)" fill-opacity=".1" d="m67.109 15.48 53.552 32.385v10.381L13.774 45.09V34.763L67.11 15.48Z"/><defs><radialGradient id="a" cx="0" cy="0" r="1" gradientTransform="rotate(-90 103.337 23.365) scale(30.3438 147.718)" gradientUnits="userSpaceOnUse"><stop offset=".195" stop-color="#ECF6FF"/><stop offset="1" stop-color="#4B71CD"/></radialGradient><radialGradient id="b" cx="0" cy="0" r="1" gradientTransform="matrix(0 -22.3018 119.21 0 79.981 116.483)" gradientUnits="userSpaceOnUse"><stop offset=".195" stop-color="#ECF6FF"/><stop offset="1" stop-color="#4B71CD"/></radialGradient><radialGradient id="c" cx="0" cy="0" r="1" gradientTransform="matrix(0 41.0314 -62.5905 0 112.109 82.369)" gradientUnits="userSpaceOnUse"><stop offset=".195" stop-color="#ECF6FF"/><stop offset="1" stop-color="#506AA5"/></radialGradient><radialGradient id="d" cx="0" cy="0" r="1" gradientTransform="matrix(0 41.0314 -62.5905 0 80.001 77.977)" gradientUnits="userSpaceOnUse"><stop offset=".195" stop-color="#ECF6FF"/><stop offset="1" stop-color="#506AA5"/></radialGradient><radialGradient id="e" cx="0" cy="0" r="1" gradientTransform="matrix(0 41.0314 -62.5905 0 47.783 75.354)" gradientUnits="userSpaceOnUse"><stop offset=".195" stop-color="#ECF6FF"/><stop offset="1" stop-color="#506AA5"/></radialGradient><radialGradient id="f" cx="0" cy="0" r="1" gradientTransform="matrix(0 48.6945 -21.0997 0 46.132 70.996)" gradientUnits="userSpaceOnUse"><stop offset=".13" stop-color="#E4EFF9"/><stop offset="1" stop-color="#506AA5"/></radialGradient><radialGradient id="g" cx="0" cy="0" r="1" gradientTransform="matrix(0 48.6945 -21.0961 0 78.4 73.86)" gradientUnits="userSpaceOnUse"><stop offset=".13" stop-color="#E4EFF9"/><stop offset="1" stop-color="#506AA5"/></radialGradient><radialGradient id="h" cx="0" cy="0" r="1" gradientTransform="matrix(0 48.7546 -21.0455 0 110.672 78.173)" gradientUnits="userSpaceOnUse"><stop offset=".13" stop-color="#E4EFF9"/><stop offset="1" stop-color="#506AA5"/></radialGradient><radialGradient id="i" cx="0" cy="0" r="1" gradientTransform="rotate(170.684 50.453 8.072) scale(68.8267 81.4931)" gradientUnits="userSpaceOnUse"><stop stop-color="#63F0EB"/><stop offset="1" stop-color="#63F0EB" stop-opacity="0"/></radialGradient><radialGradient id="j" cx="0" cy="0" r="1" gradientTransform="rotate(17.512 -57.56 23.72) scale(61.2929 71.4182)" gradientUnits="userSpaceOnUse"><stop stop-color="#63F0EB"/><stop offset="1" stop-color="#63F0EB" stop-opacity="0"/></radialGradient></defs></svg>